<?xml version="1.0" encoding="UTF-8" standalone="no"?>
<svg
   xmlns:dc="http://purl.org/dc/elements/1.1/"
   xmlns:cc="http://creativecommons.org/ns#"
   xmlns:rdf="http://www.w3.org/1999/02/22-rdf-syntax-ns#"
   xmlns:svg="http://www.w3.org/2000/svg"
   xmlns="http://www.w3.org/2000/svg"
   xmlns:sodipodi="http://sodipodi.sourceforge.net/DTD/sodipodi-0.dtd"
   xmlns:inkscape="http://www.inkscape.org/namespaces/inkscape"
   data-name="Layer 1"
   width="900"
   height="545"
   viewBox="0 0 900 545"
   version="1.1"
   id="svg212"
   sodipodi:docname="school.svg"
   inkscape:version="0.92.5 (2060ec1f9f, 2020-04-08)">
  <metadata
     id="metadata218">
    <rdf:RDF>
      <cc:Work
         rdf:about="">
        <dc:format>image/svg+xml</dc:format>
        <dc:type
           rdf:resource="http://purl.org/dc/dcmitype/StillImage" />
        <dc:title></dc:title>
      </cc:Work>
    </rdf:RDF>
  </metadata>
  <defs
     id="defs216" />
  <sodipodi:namedview
     pagecolor="#ffffff"
     bordercolor="#666666"
     borderopacity="1"
     objecttolerance="10"
     gridtolerance="10"
     guidetolerance="10"
     inkscape:pageopacity="0"
     inkscape:pageshadow="2"
     inkscape:window-width="1848"
     inkscape:window-height="1016"
     id="namedview214"
     showgrid="false"
     inkscape:zoom="0.816609"
     inkscape:cx="203.1853"
     inkscape:cy="403.10086"
     inkscape:window-x="72"
     inkscape:window-y="27"
     inkscape:window-maximized="1"
     inkscape:current-layer="svg212" />
  <path
     inkscape:connector-curvature="0"
     style="fill:#f2f2f2;fill-opacity:1;stroke-width:0.88131094"
     d="m 795.08974,258.10944 c -3.58903,34.77491 -21.65926,68.37936 -47.43674,96.17184 -1.07767,1.16239 -2.16816,2.31402 -3.27151,3.45489 -2.48249,2.56695 -5.02912,5.08547 -7.63991,7.55555 -3.19453,3.04321 -6.48206,6.01648 -9.86261,8.91979 -2.7519,2.38933 -5.56796,4.72756 -8.44817,7.01467 -2.22269,1.78395 -4.47104,3.53292 -6.74506,5.24691 -27.3555,20.73741 -58.78115,37.85041 -91.15937,52.81625 -63.18806,29.19704 -132.44763,51.31475 -204.48798,54.53558 C 344.00765,497.03764 268.8113,479.73092 215.9862,438.51441 144.7926,382.9698 124.92309,290.3255 153.82771,212.45328 173.05258,160.64608 173.66028,69.694303 261.23632,69.699043 c 230.03936,2.15175 257.01383,-57.604415 358.76084,-36.126819 29.2703,10.162863 55.53852,32.621429 78.58335,50.880669 10.55347,8.37953 20.4284,17.340727 29.55896,26.823817 0.93333,0.96059 1.85706,1.92926 2.77115,2.90599 3.82959,4.0603 7.53407,8.20401 11.11349,12.43114 5.13816,6.0622 10.01654,12.25894 14.63514,18.59021 1.27011,1.74359 2.5306,3.49526 3.76222,5.26306 0.8275,1.18661 1.66462,2.38129 2.4825,3.58405 0.0185,0.0247 0.0317,0.0521 0.0386,0.0807 12.80696,18.89695 23.27576,39.06124 28.73151,60.13767 0.96223,3.72935 1.77046,7.47484 2.3959,11.25262 v 0.008 c 0.54846,3.20465 0.96221,6.42545 1.24124,9.66239 0.65788,7.63159 0.58386,15.29518 -0.22135,22.91682 z"
     id="path2"
     sodipodi:nodetypes="ccscccccccccccccccccccccscc" />
  <path
     inkscape:connector-curvature="0"
     style="fill:none;stroke:#3f3d56;stroke-width:1.31148243;stroke-miterlimit:10"
     d="m 232.64563,358.30301 c 0,0 7.56316,-60.70079 -30.61413,-64.23672"
     stroke-miterlimit="10"
     id="path33" />
  <circle
     style="fill:#29282f;stroke-width:0.62911201"
     cx="655.43353"
     cy="127.32939"
     r="38.492687"
     id="circle37" />
  <line
     style="fill:#3f3d56;stroke:#3f3d56;stroke-width:1.25822401;stroke-miterlimit:10"
     x1="655.4577"
     y1="360.3717"
     x2="655.4577"
     y2="127.47078"
     stroke-miterlimit="10"
     id="line39" />
  <path
     inkscape:connector-curvature="0"
     style="fill:none;stroke:#3f3d56;stroke-width:1.25822401;stroke-miterlimit:10"
     d="m 655.45772,357.65751 c 0,0 6.34765,-58.97088 -30.3277,-61.79205"
     stroke-miterlimit="10"
     id="path49" />
  <line
     style="fill:#3f3d56;stroke:#3f3d56;stroke-width:1.31148243;stroke-miterlimit:10"
     x1="232.60159"
     y1="361.13177"
     x2="234.91068"
     y2="212.96722"
     stroke-miterlimit="10"
     id="line27" />
  <path
     d="m 645.06949,334.63373 h -391.31 a 26.82,26.82 0 0 0 0,53.64 h 391.31 a 26.76039,26.76039 0 0 0 20.12,-9.11 27.096,27.096 0 0 0 3.02,-4.18 25.54045,25.54045 0 0 0 1.75,-3.56 26.80329,26.80329 0 0 0 -24.89,-36.79 z"
     id="path16"
     inkscape:connector-curvature="0"
     style="fill:#cccccc" />
  <path
     d="m 670.32949,373.76373 a 289.004,289.004 0 0 1 -28.12,28.95 h -385.58 a 289.004,289.004 0 0 1 -28.12,-28.95 z"
     id="path22"
     inkscape:connector-curvature="0"
     style="fill:#3f3d56" />
  <path
     d="m 481.69949,273.49373 h -64.92 a 3.17486,3.17486 0 0 0 -1.03,0.16 3.448,3.448 0 0 0 -2.43,3.3 v 102.56 h 71.85 v -102.56 a 3.46328,3.46328 0 0 0 -3.47,-3.46 z m -24.57,50.6 a 7.53127,7.53127 0 0 1 -1.56,4.6 7.665,7.665 0 0 1 -13.78,-4.6 v -11.9 a 7.67033,7.67033 0 0 1 15.34,0 z"
     id="path24"
     inkscape:connector-curvature="0"
     style="fill:#2f2e41" />
  <path
     d="m 413.09949,376.23373 v 9.89 a 1.93971,1.93971 0 0 0 1.93,1.94 h 68.43 a 1.94622,1.94622 0 0 0 1.93,-1.94 v -9.89 z"
     id="path26"
     inkscape:connector-curvature="0"
     style="fill:#3f3d56" />
  <path
     d="m 589.19949,113.44373 h -277.5 a 9.01147,9.01147 0 0 0 -9,8.99 v 187.26 a 9.0071,9.0071 0 0 0 9,9 h 277.5 a 9.00714,9.00714 0 0 0 9,-9 v -187.26 a 9.01151,9.01151 0 0 0 -9,-8.99 z"
     id="path28"
     inkscape:connector-curvature="0"
     style="fill:#3f3d56" />
  <path
     d="m 586.87949,119.94373 h -272.87 a 4.82046,4.82046 0 0 0 -4.81,4.82 v 182.62 a 4.81829,4.81829 0 0 0 4.81,4.81 h 272.87 a 4.81833,4.81833 0 0 0 4.81,-4.81 v -182.62 a 4.8205,4.8205 0 0 0 -4.81,-4.82 z"
     id="path30"
     inkscape:connector-curvature="0"
     style="fill:#29282f" />
  <path
     d="m 536.65949,387.90373 -2.52,-11.97 a 2.99238,2.99238 0 0 0 -1.86,-2.17 2.89431,2.89431 0 0 0 -1.06,-0.2 h -157.31 a 2.89455,2.89455 0 0 0 -1.06,0.2 2.99262,2.99262 0 0 0 -1.86,2.17 l -2.52,11.97 a 2.98724,2.98724 0 0 0 2.92,3.6 h 162.34 a 2.94839,2.94839 0 0 0 2.32,-1.11 2.98494,2.98494 0 0 0 0.61,-2.49 z"
     id="path32"
     inkscape:connector-curvature="0"
     style="fill:#2f2e41" />
  <rect
     x="375.06247"
     y="375.71954"
     width="5"
     height="3"
     rx="0.48819"
     id="rect34"
     style="fill:#3f3d56" />
  <rect
     x="385.06247"
     y="375.71954"
     width="5"
     height="3"
     rx="0.48819"
     id="rect36"
     style="fill:#3f3d56" />
  <rect
     x="395.06247"
     y="375.71954"
     width="5"
     height="3"
     rx="0.48819"
     id="rect38"
     style="fill:#3f3d56" />
  <rect
     x="405.06247"
     y="375.71954"
     width="5"
     height="3"
     rx="0.48819"
     id="rect40"
     style="fill:#3f3d56" />
  <rect
     x="415.06247"
     y="375.71954"
     width="5"
     height="3"
     rx="0.48819"
     id="rect42"
     style="fill:#3f3d56" />
  <rect
     x="425.06247"
     y="375.71954"
     width="5"
     height="3"
     rx="0.48819"
     id="rect44"
     style="fill:#3f3d56" />
  <rect
     x="435.06247"
     y="375.71954"
     width="5"
     height="3"
     rx="0.48819"
     id="rect46"
     style="fill:#3f3d56" />
  <rect
     x="445.06247"
     y="375.71954"
     width="5"
     height="3"
     rx="0.48819"
     id="rect48"
     style="fill:#3f3d56" />
  <rect
     x="455.06247"
     y="375.71954"
     width="5"
     height="3"
     rx="0.48819"
     id="rect50"
     style="fill:#3f3d56" />
  <rect
     x="465.06247"
     y="375.71954"
     width="5"
     height="3"
     rx="0.48819"
     id="rect52"
     style="fill:#3f3d56" />
  <rect
     x="475.06247"
     y="375.71954"
     width="5"
     height="3"
     rx="0.48819"
     id="rect54"
     style="fill:#3f3d56" />
  <rect
     x="485.06247"
     y="375.71954"
     width="5"
     height="3"
     rx="0.48819"
     id="rect56"
     style="fill:#3f3d56" />
  <rect
     x="495.06247"
     y="375.71954"
     width="5"
     height="3"
     rx="0.48819"
     id="rect58"
     style="fill:#3f3d56" />
  <rect
     x="505.06247"
     y="375.71954"
     width="5"
     height="3"
     rx="0.48819"
     id="rect60"
     style="fill:#3f3d56" />
  <rect
     x="515.0625"
     y="375.71954"
     width="5"
     height="3"
     rx="0.48819"
     id="rect62"
     style="fill:#3f3d56" />
  <rect
     x="525.0625"
     y="375.71954"
     width="5"
     height="3"
     rx="0.48819"
     id="rect64"
     style="fill:#3f3d56" />
  <rect
     x="374.94431"
     y="380.71954"
     width="5"
     height="3"
     rx="0.48819"
     id="rect66"
     style="fill:#3f3d56" />
  <rect
     x="384.94431"
     y="380.71954"
     width="5"
     height="3"
     rx="0.48819"
     id="rect68"
     style="fill:#3f3d56" />
  <rect
     x="394.94431"
     y="380.71954"
     width="5"
     height="3"
     rx="0.48819"
     id="rect70"
     style="fill:#3f3d56" />
  <rect
     x="404.94431"
     y="380.71954"
     width="5"
     height="3"
     rx="0.48819"
     id="rect72"
     style="fill:#3f3d56" />
  <rect
     x="414.94431"
     y="380.71954"
     width="5"
     height="3"
     rx="0.48819"
     id="rect74"
     style="fill:#3f3d56" />
  <rect
     x="424.94431"
     y="380.71954"
     width="5"
     height="3"
     rx="0.48819"
     id="rect76"
     style="fill:#3f3d56" />
  <rect
     x="434.94431"
     y="380.71954"
     width="5"
     height="3"
     rx="0.48819"
     id="rect78"
     style="fill:#3f3d56" />
  <rect
     x="444.94431"
     y="380.71954"
     width="5"
     height="3"
     rx="0.48819"
     id="rect80"
     style="fill:#3f3d56" />
  <rect
     x="454.94431"
     y="380.71954"
     width="5"
     height="3"
     rx="0.48819"
     id="rect82"
     style="fill:#3f3d56" />
  <rect
     x="464.94431"
     y="380.71954"
     width="5"
     height="3"
     rx="0.48819"
     id="rect84"
     style="fill:#3f3d56" />
  <rect
     x="474.94431"
     y="380.71954"
     width="5"
     height="3"
     rx="0.48819"
     id="rect86"
     style="fill:#3f3d56" />
  <rect
     x="484.94431"
     y="380.71954"
     width="5"
     height="3"
     rx="0.48819"
     id="rect88"
     style="fill:#3f3d56" />
  <rect
     x="494.94431"
     y="380.71954"
     width="5"
     height="3"
     rx="0.48819"
     id="rect90"
     style="fill:#3f3d56" />
  <rect
     x="504.94431"
     y="380.71954"
     width="5"
     height="3"
     rx="0.48819"
     id="rect92"
     style="fill:#3f3d56" />
  <rect
     x="514.94434"
     y="380.71954"
     width="5"
     height="3"
     rx="0.48819"
     id="rect94"
     style="fill:#3f3d56" />
  <rect
     x="524.94434"
     y="380.71954"
     width="5"
     height="3"
     rx="0.48819"
     id="rect96"
     style="fill:#3f3d56" />
  <rect
     x="422.94431"
     y="386.71954"
     width="40"
     height="3"
     rx="0.48819"
     id="rect98"
     style="fill:#3f3d56" />
  <path
     d="M 573.16762,145.10042 H 317.84426 a 1.01559,1.01559 0 0 1 0,-2.03069 h 255.32336 a 1.01559,1.01559 0 0 1 0,2.03069 z"
     id="path100"
     inkscape:connector-curvature="0"
     style="fill:#3f3d56" />
  <ellipse
     cx="335.22446"
     cy="131.80254"
     rx="5.9504299"
     ry="6.0830402"
     id="ellipse102"
     style="fill:#3f3d56" />
  <ellipse
     cx="355.78046"
     cy="131.80254"
     rx="5.9504299"
     ry="6.0830402"
     id="ellipse104"
     style="fill:#3f3d56" />
  <ellipse
     cx="376.33649"
     cy="131.80254"
     rx="5.9504299"
     ry="6.0830402"
     id="ellipse106"
     style="fill:#3f3d56" />
  <path
     d="m 560.78949,127.22373 h -14.6 a 1.1053,1.1053 0 0 0 0,2.21 h 14.6 a 1.10511,1.10511 0 0 0 0,-2.21 z"
     id="path108"
     inkscape:connector-curvature="0"
     style="fill:#3f3d56" />
  <path
     d="m 560.78949,131.37373 h -14.6 a 1.10527,1.10527 0 0 0 0,2.21 h 14.6 a 1.10508,1.10508 0 0 0 0,-2.21 z"
     id="path110"
     inkscape:connector-curvature="0"
     style="fill:#3f3d56" />
  <path
     d="m 560.78949,135.52373 h -14.6 a 1.1053,1.1053 0 0 0 0,2.21 h 14.6 a 1.10511,1.10511 0 0 0 0,-2.21 z"
     id="path112"
     inkscape:connector-curvature="0"
     style="fill:#3f3d56" />
  <rect
     x="331.73361"
     y="168.69702"
     width="11.00609"
     height="5.7599201"
     rx="2.8799601"
     id="rect114"
     style="fill:#e6e6e6" />
  <rect
     x="391.73358"
     y="168.69702"
     width="11.00609"
     height="5.7599201"
     rx="2.8799601"
     id="rect116"
     style="fill:#e6e6e6" />
  <rect
     x="408.73358"
     y="168.69702"
     width="11.00609"
     height="5.7599201"
     rx="2.8799601"
     id="rect118"
     style="fill:#e6e6e6" />
  <rect
     x="348.05377"
     y="168.21686"
     width="38.3657"
     height="5.7599201"
     rx="2.8799601"
     id="rect120"
     style="fill:#e6e6e6" />
  <rect
     x="428.05377"
     y="168.21686"
     width="38.3657"
     height="5.7599201"
     rx="2.8799601"
     id="rect122"
     style="fill:#e6e6e6" />
  <rect
     x="347.73358"
     y="181.69702"
     width="11.00609"
     height="5.7599201"
     rx="2.8799601"
     id="rect124"
     style="fill:#e6e6e6" />
  <rect
     x="407.73358"
     y="181.69702"
     width="11.00609"
     height="5.7599201"
     rx="2.8799601"
     id="rect126"
     style="fill:#e6e6e6" />
  <rect
     x="424.73358"
     y="181.69702"
     width="11.00609"
     height="5.7599201"
     rx="2.8799601"
     id="rect128"
     style="fill:#e6e6e6" />
  <rect
     x="364.05377"
     y="181.21686"
     width="38.3657"
     height="5.7599201"
     rx="2.8799601"
     id="rect130"
     style="fill:#e6e6e6" />
  <rect
     x="444.05377"
     y="181.21686"
     width="38.3657"
     height="5.7599201"
     rx="2.8799601"
     id="rect132"
     style="fill:#e6e6e6" />
  <rect
     x="363.73358"
     y="194.69702"
     width="11.00609"
     height="5.7599201"
     rx="2.8799601"
     id="rect134"
     style="fill:#e6e6e6" />
  <rect
     x="423.73358"
     y="194.69702"
     width="11.00609"
     height="5.7599201"
     rx="2.8799601"
     id="rect136"
     style="fill:#e6e6e6" />
  <rect
     x="440.73358"
     y="194.69702"
     width="11.00609"
     height="5.7599201"
     rx="2.8799601"
     id="rect138"
     style="fill:#e6e6e6" />
  <rect
     x="380.05377"
     y="194.21686"
     width="38.3657"
     height="5.7599201"
     rx="2.8799601"
     id="rect140"
     style="fill:#e6e6e6" />
  <rect
     x="460.05377"
     y="194.21686"
     width="38.3657"
     height="5.7599201"
     rx="2.8799601"
     id="rect142"
     style="fill:#e6e6e6" />
  <rect
     x="379.73358"
     y="207.69702"
     width="11.00609"
     height="5.7599201"
     rx="2.8799601"
     id="rect144"
     style="fill:#e6e6e6" />
  <rect
     x="439.73358"
     y="207.69702"
     width="11.00609"
     height="5.7599201"
     rx="2.8799601"
     id="rect146"
     style="fill:#e6e6e6" />
  <rect
     x="456.73358"
     y="207.69702"
     width="11.00609"
     height="5.7599201"
     rx="2.8799601"
     id="rect148"
     style="fill:#e6e6e6" />
  <rect
     x="396.05377"
     y="207.21686"
     width="38.3657"
     height="5.7599201"
     rx="2.8799601"
     id="rect150"
     style="fill:#e6e6e6" />
  <rect
     x="391.73358"
     y="259.39056"
     width="11.00609"
     height="5.7599201"
     rx="2.8799601"
     id="rect152"
     style="fill:#e6e6e6" />
  <rect
     x="408.73358"
     y="259.39056"
     width="11.00609"
     height="5.7599201"
     rx="2.8799601"
     id="rect154"
     style="fill:#e6e6e6" />
  <rect
     x="428.05377"
     y="259.87073"
     width="38.3657"
     height="5.7599201"
     rx="2.8799601"
     id="rect156"
     style="fill:#e6e6e6" />
  <rect
     x="331.73361"
     y="259.39056"
     width="11.00609"
     height="5.7599201"
     rx="2.8799601"
     id="rect158"
     style="fill:#e6e6e6" />
  <rect
     x="348.05377"
     y="259.87073"
     width="38.3657"
     height="5.7599201"
     rx="2.8799601"
     id="rect160"
     style="fill:#e6e6e6" />
  <rect
     x="347.73358"
     y="246.39056"
     width="11.00609"
     height="5.7599201"
     rx="2.8799601"
     id="rect162"
     style="fill:#e6e6e6" />
  <rect
     x="407.73358"
     y="246.39056"
     width="11.00609"
     height="5.7599201"
     rx="2.8799601"
     id="rect164"
     style="fill:#e6e6e6" />
  <rect
     x="424.73358"
     y="246.39056"
     width="11.00609"
     height="5.7599201"
     rx="2.8799601"
     id="rect166"
     style="fill:#e6e6e6" />
  <rect
     x="364.05377"
     y="246.87073"
     width="38.3657"
     height="5.7599201"
     rx="2.8799601"
     id="rect168"
     style="fill:#e6e6e6" />
  <rect
     x="363.73358"
     y="233.39056"
     width="11.00609"
     height="5.7599201"
     rx="2.8799601"
     id="rect170"
     style="fill:#e6e6e6" />
  <rect
     x="423.73358"
     y="233.39056"
     width="11.00609"
     height="5.7599201"
     rx="2.8799601"
     id="rect172"
     style="fill:#e6e6e6" />
  <rect
     x="440.73358"
     y="233.39056"
     width="11.00609"
     height="5.7599201"
     rx="2.8799601"
     id="rect174"
     style="fill:#e6e6e6" />
  <rect
     x="380.05377"
     y="233.87073"
     width="38.3657"
     height="5.7599201"
     rx="2.8799601"
     id="rect176"
     style="fill:#e6e6e6" />
  <rect
     x="379.73358"
     y="220.39056"
     width="11.00609"
     height="5.7599201"
     rx="2.8799601"
     id="rect178"
     style="fill:#e6e6e6" />
  <rect
     x="439.73358"
     y="220.39056"
     width="11.00609"
     height="5.7599201"
     rx="2.8799601"
     id="rect180"
     style="fill:#e6e6e6" />
  <rect
     x="456.73358"
     y="220.39056"
     width="11.00609"
     height="5.7599201"
     rx="2.8799601"
     id="rect182"
     style="fill:#e6e6e6" />
  <rect
     x="396.05377"
     y="220.87073"
     width="38.3657"
     height="5.7599201"
     rx="2.8799601"
     id="rect184"
     style="fill:#e6e6e6" />
  <path
     d="m 576.22949,447.19373 c -0.61,0.31 -1.23,0.62 -1.84,0.92 -15.8,7.9 -28.43994,12.39 -45.73,17.31 -1.46,-16.3 -2.87,-44.95 -4.24,-62.71 -0.36,-4.61 -0.72,-8.48 -1.07,-11.21 a 15.1823,15.1823 0 0 0 -0.88,-4.25 l 0.06,4.25 0.15,11.21 0.87,64.11 a 288.58782,288.58782 0 0 1 -65.84,9.49 c -1.16,0.03 -2.3,0.05 -3.4,0.07 -0.39,0.01 -0.77,0.02 -1.15,0.02 -1.25,0.01 -2.49,0.02 -3.74,0.02 a 289.27116,289.27116 0 0 1 -69.54,-8.43 c 0.49,-16.13 0.98,-44.46 1.45,-65.28 0.1,-4.07 0.19,-7.86 0.29,-11.21 0.19,-7.16 0.39,-12.32 0.58,-14.05 a 4.36108,4.36108 0 0 0 -0.39,0.97 97.15388,97.15388 0 0 0 -1.89,13.08 c -0.35,3.35 -0.7,7.14 -1.05,11.21 -1.86,21.63 -3.8,51.04 -5.8,63.51 a 285.47262,285.47262 0 0 1 -34.97,-12.03 q -9,-3.75 -17.68,-8.09 c 1.1,-7.2 2.25,-15.27 3.43,-23.64 0.92,-6.49 1.87,-13.16 2.84,-19.75 1.5,-10.18 3.04,-20.16 4.6,-28.95 2.28,-12.84 4.62,-23.16 6.94,-27.9 2.2,-4.5 4.4,-8.94 6.53,-13.19 0.74,-1.49 1.48,-2.96 2.2,-4.39 0.17,-0.34 0.34,-0.67 0.51,-1 1.53,-3.01 3.01,-5.89 4.42,-8.59 1.21,-2.31 2.36005,-4.49 3.45,-6.5 2.64,-4.88 4.88,-8.77 6.54,-11.23 a 55.25656,55.25656 0 0 1 29.28,-22.21 l 0.3,-0.08 0.21,0.09 20.45,-6.28 2.99,-0.92 2.01,-0.62 7.08,-5.39 3.85,-2.93 3.61,-2.75 7.06,-5.37 43.71,2.69 8.51,20.49 19.06,6.97 0.33,-0.15 0.29,-0.12 0.3,0.08 a 55.306,55.306 0 0 1 29.28,22.21 c 0.93994,1.41 2.08,3.27 3.37,5.52 1.1,1.91 2.3,4.09 3.6,6.5 1.85,3.43005 3.87,7.30005 6.01,11.49 0.47,0.92 0.95,1.86 1.43,2.81 q 1.335,2.63993 2.71,5.38995 c 2.13,4.25 4.33,8.69 6.53,13.2 1.91,3.91 3.84,11.95 5.74,22.18 1.57,8.5 3.13,18.52 4.64,28.95 1.98,13.52 -0.13,29.71 1.66,42.15 0.11,0.79005 0.23,1.56005 0.34,2.33005 z"
     id="path186"
     inkscape:connector-curvature="0"
     style="fill:#3f3d56" />
  <polygon
     points="222.32,470.8 206.32,475.296 214.817,442.504 "
     id="polygon192"
     style="opacity:0.2"
     transform="translate(160.41949,-101.57627)" />
  <path
     d="m 592.84949,352.35373 c -3.04,41.88 0.11,60.32 -16.67,94.85 a 286.15918,286.15918 0 0 1 -47.52,18.22 q -2.55,0.72 -5.11,1.4 a 288.58782,288.58782 0 0 1 -65.84,9.49 c -1.16,0.03 -2.3,0.05 -3.4,0.07 -0.39,0.01 -0.77,0.02 -1.15,0.02 -1.25,0.01 -2.49,0.02 -3.74,0.02 a 289.27116,289.27116 0 0 1 -69.54,-8.43 q -3.42,-0.84 -6.81,-1.77 a 285.47262,285.47262 0 0 1 -34.97,-12.03 q -9,-3.75 -17.68,-8.09 c -1.31,-0.66 -2.62,-1.32 -3.91,-2 -6.63,-11.66 -10.4,-25.84 -10.48,-42.88 4.59,-29.36 276.68,-74.19 286.82,-48.87 z"
     id="path194"
     inkscape:connector-curvature="0"
     style="fill:#2f2e41" />
  <path
     d="m 592.84161,359.5259 c 0.15527,-2.59271 0.32886,-5.27093 0.53131,-8.05987 -10.14,-25.32 -282.23,19.51 -286.82,48.87 0.0126,2.69184 0.12775,5.30414 0.32129,7.85456 11.11559,-28.97829 269.60473,-71.58632 285.9674,-48.66469 z"
     id="path196"
     inkscape:connector-curvature="0"
     style="opacity:0.2" />
  <path
     d="m 323.51501,240.57535 a 6.36455,6.36455 0 0 0 -6.75274,-6.81562 5.8541,5.8541 0 0 0 -1.00507,0.12575 l -39.7621,8.98257 a 6.54762,6.54762 0 0 0 -4.20873,3.23509 8.18371,8.18371 0 0 0 -1.72738,0.25112 9.6613316,9.6613316 0 0 0 4.2714,18.84464 9.79394,9.79394 0 0 0 3.89453,-1.88439 l 13.474,37.9406 a 6.3285,6.3285 0 0 0 6.941,3.04646 l 25.84869,-5.84179 a 6.41623,6.41623 0 0 0 4.93088,-5.71623 z m -49.78137,21.92253 a 6.91049,6.91049 0 0 1 -3.0779,-13.47385 c 0.12556,-0.0314 0.25132,0 0.37688,-0.0314 a 6.50647,6.50647 0 0 0 0.84807,3.26634 l 4.93085,8.60569 a 6.50519,6.50519 0 0 1 -3.0779,1.63326 z"
     id="path198"
     inkscape:connector-curvature="0"
     style="fill:#2f2e41" />
  <path
     d="m 316.76227,233.75973 c 0.37688,5.02535 -8.22881,10.80427 -19.75539,13.09716 -10.58459,2.16714 -20.06959,0.65944 -22.73936,-3.29777 a 6.02524,6.02524 0 0 1 1.72758,-0.69107 l 39.7621,-8.98257 a 5.8541,5.8541 0 0 1 1.00507,-0.12575 z"
     id="path200"
     inkscape:connector-curvature="0"
     style="fill:#3f3d56" />
  <path
     d="m 289.26282,361.32897 22.33367,-11.16681 -18.6114,-50.25079 -4.90493,-25.342 a 19.16137,19.16137 0 0 0 -31.28219,-10.90731 v 0 a 19.16136,19.16136 0 0 0 -2.49251,26.51833 l 18.20719,22.75891 z"
     id="path202"
     style="fill:#ffb6b6;fill-opacity:1"
     inkscape:connector-curvature="0" />
  <path
     d="m 311.59649,340.85646 -29.77821,14.889 22.59854,70.80908 a 30.9768,30.9768 0 0 0 22.33567,20.7164 v 0 a 30.97681,30.97681 0 0 0 33.73743,-14.197 l 59.92487,-102.71393 a 31.62026,31.62026 0 0 0 -10.19564,-42.982 v 0 a 31.62037,31.62037 0 0 0 -45.29613,12.76511 l -36.576,77.93632 z"
     id="path204"
     inkscape:connector-curvature="0"
     style="fill:#3f3d56" />
  <path
     d="m 302.38629,276.86514 a 0.49632,0.49632 0 0 1 -0.1626,-0.0274 l -6.50147,-2.23828 a 0.49923,0.49923 0 0 1 -0.20556,-0.81055 l 4.83545,-5.26464 a 0.49972,0.49972 0 1 1 0.73633,0.67578 l -4.31885,4.70215 5.77929,1.99023 a 0.49991,0.49991 0 0 1 -0.16259,0.97266 z"
     id="path206"
     inkscape:connector-curvature="0"
     style="fill:#29282f" />
  <path
     d="m 311.29791,275.04092 a 0.5,0.5 0 0 1 -0.34766,-0.85938 l 4.39453,-4.249 -5.90332,-2.43262 a 0.49963,0.49963 0 1 1 0.38086,-0.92383 l 6.60938,2.72364 a 0.49951,0.49951 0 0 1 0.15722,0.82129 l -4.94336,4.77929 a 0.49966,0.49966 0 0 1 -0.34765,0.14061 z"
     id="path208"
     inkscape:connector-curvature="0"
     style="fill:#29282f" />
  <path
     d="m 303.75103,279.92373 a 0.48228,0.48228 0 0 1 -0.147,-0.0225 0.49976,0.49976 0 0 1 -0.33105,-0.625 l 4.61474,-15 a 0.50026,0.50026 0 0 1 0.95606,0.29492 l -4.61475,15 a 0.50035,0.50035 0 0 1 -0.478,0.35254 z"
     id="path210"
     inkscape:connector-curvature="0"
     style="fill:#29282f" />
  <circle
     style="fill:#ffb6b6;fill-opacity:1;stroke-width:2.73564219"
     cx="456.0029"
     cy="189.18954"
     r="58.879745"
     id="circle32" />
  <path
     inkscape:connector-curvature="0"
     style="fill:#2f2e41;stroke-width:2.73564219"
     d="m 478.86185,241.7559 3.85725,1.23104 c -12.06418,1.01219 -33.56633,7.74186 -31.45988,4.02139 2.10644,-3.72047 -5.85428,-17.75432 -1.96966,-19.53248 a 24.704736,24.704736 0 0 0 10.45015,-7.08532 c 2.46208,-3.44691 2.40736,-9.13704 -1.28575,-11.24349 -3.58369,-2.07908 -8.01543,0.16414 -11.57177,2.27059 -3.58369,2.07909 -10.20394,-28.50539 -8.50785,-38.05278 -9.98509,-5.47129 -22.07663,5.00622 -33.29276,2.95449 -6.86646,-1.2584 -11.81797,-6.89382 -14.93661,-13.29522 a 41.7076,41.7076 0 0 0 11.02464,-17.56282 54.465677,54.465677 0 0 1 -15.10074,5.00622 35.483768,35.483768 0 0 1 0.38299,-14.99132 24.464382,24.464382 0 0 1 15.23752,-17.34397 17.73339,17.73339 0 0 1 20.79088,7.71451 17.629463,17.629463 0 0 0 -11.16142,-17.50811 18.537696,18.537696 0 0 1 26.67251,12.61131 57.268725,57.268725 0 0 1 39.91302,-4.2676 c 13.24051,3.47427 30.80333,18.16466 30.80333,18.16466 29.87308,6.59304 28.45065,120.17695 -29.84585,106.9089 z"
     id="path38" />
  <circle
     style="fill:#3f3d56;stroke-width:0.62911201"
     cx="655.4577"
     cy="127.36046"
     r="9.8741331"
     id="circle41" />
  <circle
     style="fill:#3f3d56;stroke-width:0.62911201"
     cx="625.13"
     cy="295.86545"
     r="9.8741331"
     id="circle43" />
  <path
     inkscape:connector-curvature="0"
     style="fill:#3f3d56;stroke-width:0.62911201"
     d="m 655.45772,177.798 c 0,0 -1.41059,-30.3388 -30.3277,-26.81233"
     id="path45" />
  <path
     inkscape:connector-curvature="0"
     style="fill:#3f3d56;stroke-width:0.62911201"
     d="m 655.45772,263.8051 c 0,0 -1.41059,-30.33881 -30.3277,-26.81234"
     id="path47" />
  <circle
     style="fill:#3f3d56;stroke-width:0.62911201"
     cx="686.39117"
     cy="203.24245"
     r="9.8741331"
     id="circle51" />
  <path
     inkscape:connector-curvature="0"
     style="fill:none;stroke:#3f3d56;stroke-width:1.25822401;stroke-miterlimit:10"
     d="m 656.06348,261.88893 c 0,0 -6.34767,-55.82532 30.32767,-58.64649"
     stroke-miterlimit="10"
     id="path53" />
  <circle
     style="fill:#29282f;stroke-width:0.65574121"
     cx="234.87338"
     cy="213.0116"
     r="40.122013"
     id="circle25" />
  <circle
     style="fill:#3f3d56;stroke-width:0.65574121"
     cx="234.91068"
     cy="212.96722"
     r="10.292088"
     id="circle29" />
  <path
     inkscape:connector-curvature="0"
     style="fill:#3f3d56;stroke-width:0.65574121"
     d="m 234.25752,254.87723 c 0,0 -0.97734,-31.64208 -31.17208,-28.43646"
     id="path31" />
  <circle
     style="fill:#3f3d56;stroke-width:0.65574121"
     cx="202.03152"
     cy="294.06631"
     r="10.292088"
     id="circle35" />
</svg>
