<?xml version="1.0" encoding="UTF-8" standalone="no"?>
<svg
   xmlns:dc="http://purl.org/dc/elements/1.1/"
   xmlns:cc="http://creativecommons.org/ns#"
   xmlns:rdf="http://www.w3.org/1999/02/22-rdf-syntax-ns#"
   xmlns:svg="http://www.w3.org/2000/svg"
   xmlns="http://www.w3.org/2000/svg"
   xmlns:sodipodi="http://sodipodi.sourceforge.net/DTD/sodipodi-0.dtd"
   xmlns:inkscape="http://www.inkscape.org/namespaces/inkscape"
   data-name="Layer 1"
   width="388"
   height="426.19647"
   viewBox="0 0 388 426.19648"
   version="1.1"
   id="svg1992"
   sodipodi:docname="infos.svg"
   inkscape:version="0.92.5 (2060ec1f9f, 2020-04-08)">
  <metadata
     id="metadata1998">
    <rdf:RDF>
      <cc:Work
         rdf:about="">
        <dc:format>image/svg+xml</dc:format>
        <dc:type
           rdf:resource="http://purl.org/dc/dcmitype/StillImage" />
        <dc:title></dc:title>
      </cc:Work>
    </rdf:RDF>
  </metadata>
  <defs
     id="defs1996" />
  <sodipodi:namedview
     pagecolor="#ffffff"
     bordercolor="#666666"
     borderopacity="1"
     objecttolerance="10"
     gridtolerance="10"
     guidetolerance="10"
     inkscape:pageopacity="0"
     inkscape:pageshadow="2"
     inkscape:window-width="1848"
     inkscape:window-height="1016"
     id="namedview1994"
     showgrid="false"
     inkscape:zoom="1.7242744"
     inkscape:cx="171.80572"
     inkscape:cy="248.04276"
     inkscape:window-x="72"
     inkscape:window-y="27"
     inkscape:window-maximized="1"
     inkscape:current-layer="svg1992" />
  <path
     style="fill:#f2f2f2;fill-opacity:1;stroke:#000000;stroke-width:1px;stroke-linecap:butt;stroke-linejoin:miter;stroke-opacity:1"
     d="M 31.897475,239.45125 C 142.66871,391.97918 149.0482,408.2179 225.02219,376.32042 300.99617,344.42295 305.63581,248.73052 336.37337,215.67314 367.11094,182.61575 367.11094,123.46034 354.35195,95.042547 341.59296,66.624796 305.51031,67.279143 275.47819,50.386074 247.6404,34.727314 258.65953,-5.869466 180.36572,17.328695 102.07192,40.526855 119.1605,88.630782 74.814078,116.50085 2.1611322,162.79021 2.9098331,204.52409 31.897475,239.45125 Z"
     id="path1106"
     inkscape:connector-curvature="0"
     sodipodi:nodetypes="cssssscc" />
  <path
     d="m 269.67547,129.64454 c 0.0303,20.85985 -7.67539,40.98997 -21.6269,56.4977 v 0.0115 c -1.97244,2.1932 -4.05569,4.28414 -6.2416,6.26465 -2.23671,2.02581 -4.58172,3.92874 -7.02468,5.70039 -1.7044,1.24367 -3.45482,2.41829 -5.25125,3.52387 -3.91694,2.39322 -7.76145,4.37811 -11.68867,6.02279 -10.37972,4.36218 -21.52666,6.60566 -32.78576,6.59859 -6.35887,0.007 -12.69822,-0.70377 -18.89764,-2.11888 -2.86698,-0.65191 -5.69638,-1.45923 -8.47569,-2.41839 -1.071,-0.357 -2.14194,-0.74849 -3.20145,-1.163 -6.42404,-2.48323 -12.51616,-5.75172 -18.13755,-9.731 C 26.671231,92.160875 259.19188,-4.6515128 269.67547,129.64454 Z"
     id="path1934"
     inkscape:connector-curvature="0"
     style="fill:#f2f2f2"
     sodipodi:nodetypes="ccccccccccccc" />
  <path
     d="m 155.82013,310.37392 c -16.51077,-21.96123 -26.0537,-46.51942 -26.36641,-74.51777 a 6.04123,6.04123 0 0 1 3.676,-7.70163 l 56.27747,-19.91249 a 6.04122,6.04122 0 0 1 7.70161,3.676 l 26.3664,74.51777 a 6.04122,6.04122 0 0 1 -3.67591,7.70163 l -56.27752,19.91244 a 6.04123,6.04123 0 0 1 -7.70164,-3.67595 z"
     id="path1942"
     inkscape:connector-curvature="0"
     style="fill:#29282f;fill-opacity:1" />
  <path
     d="m 152.1732,286.33903 c -9.93022,-10.04034 -14.1809,-27.94788 -16.95072,-47.90679 a 5.65767,5.65767 0 0 1 3.44264,-7.21281 l 48.36574,-17.11311 a 5.65791,5.65791 0 0 1 7.21309,3.44253 l 23.46251,66.31069 a 5.6579,5.6579 0 0 1 -3.4429,7.2129 l -29.96158,10.6012 A 25.202,25.202 0 0 1 152.1732,286.33903 Z"
     id="path1944"
     inkscape:connector-curvature="0"
     style="fill:#ffffff" />
  <path
     d="m 194.89136,253.27074 -37.67559,13.44828 a 2.4002304,2.4002304 0 1 1 -1.6138,-4.52107 l 37.67561,-13.44831 a 2.4002304,2.4002304 0 1 1 1.6138,4.52107 z"
     id="path1946"
     inkscape:connector-curvature="0"
     style="fill:#29282f" />
  <path
     d="m 161.07931,251.36345 -8.28863,2.95863 a 2.40023,2.40023 0 1 1 -1.61379,-4.52107 l 8.28863,-2.95863 a 2.40023,2.40023 0 1 1 1.61379,4.52107 z"
     id="path1948"
     inkscape:connector-curvature="0"
     style="fill:#29282f" />
  <path
     d="m 201.98602,273.14654 -37.67559,13.44829 a 2.40023,2.40023 0 0 1 -1.61379,-4.52107 l 37.67559,-13.44829 a 2.40023,2.40023 0 0 1 1.61379,4.52107 z"
     id="path1950"
     inkscape:connector-curvature="0"
     style="fill:#29282f" />
  <path
     d="m 198.43869,263.20864 -37.67559,13.44829 a 2.4002304,2.4002304 0 0 1 -1.6138,-4.52107 l 37.6756,-13.44829 a 2.40023,2.40023 0 1 1 1.61379,4.52107 z"
     id="path1952"
     inkscape:connector-curvature="0"
     style="fill:#29282f" />
  <path
     d="m 164.22722,73.199822 c 1.22689,9.898858 8.086,18.060638 18.06055,18.060638 a 18.06055,18.06055 0 0 0 18.06056,-18.060638 c 0,-9.97461 -8.12874,-17.13842 -18.06056,-18.06061 -10.53826,-0.97851 -19.63573,5.35171 -18.06055,18.06061 z"
     id="path1954"
     inkscape:connector-curvature="0"
     style="fill:#2f2e41" />
  <path
     d="m 198.0108,194.86989 a 85.23361,85.23361 0 0 1 -33.32701,-0.88674 c 5.19365,-2.86745 20.9474,-1.10551 33.32701,0.88674 z"
     id="path1956"
     inkscape:connector-curvature="0"
     style="fill:#2f2e41" />
  <path
     d="m 127.71687,226.63752 8.67549,-20.96573 6.83522,3.79734 -4.1279,21.32748 a 7.5956,7.5956 0 1 1 -11.38281,-4.15909 z"
     id="path1958"
     inkscape:connector-curvature="0"
     style="fill:#ffb6b6" />
  <path
     d="m 217.46118,169.90412 v 0.0115 c -0.311,7.30111 -0.737,14.24517 -1.094,19.58856 a 84.48558,84.48558 0 0 1 -32.78576,6.59859 84.49842,84.49842 0 0 1 -18.89764,-2.11888 81.105,81.105 0 0 1 -8.47569,-2.41839 5.22916,5.22916 0 0 1 1.24374,-0.58725 c 4.1457,-1.405 0.046,-2.68322 0.0806,-4.01911 0.12666,-4.88273 1.474,-10.74429 3.21291,-16.36406 l -7.73879,19.80738 -4.03057,10.29522 c 0,0 0.13826,8.89024 -2.41831,6.17251 -2.568,-2.71774 -2.3838,6.08036 -2.3838,6.08036 a 8.01088,8.01088 0 0 0 -2.02681,2.0959 1.77771,1.77771 0 0 0 -0.24179,1.23221 v 0.0115 a 1.53922,1.53922 0 0 0 0.64489,0.80613 c 1.73891,1.17457 -0.76009,4.28388 -1.86558,5.51609 -0.29942,0.33394 -0.49517,0.52976 -0.49517,0.52976 l -10.62923,-0.76009 v -0.20728 c 0.0461,-1.25519 0.334,-7.86538 1.98077,-9.44306 1.808,-1.73884 0.92126,-4.49116 0.92126,-4.49116 0,0 4.72149,-4.18028 1.55462,-7.57748 -1.26672,-1.3704 -0.70245,-9.4891 0.85217,-19.9916 3.3972,-23.17 11.539,-57.94858 15.06282,-57.45345 a 19.54689,19.54689 0 0 1 13.94574,-14.90172 l 11.4814,-3.15536 2.04979,-8.09576 h 16.16839 l 2.80988,5.32037 11.78075,5.32044 0.14972,0.0691 0.36851,0.16117 0.13819,0.43761 c 0,0 -0.0115,0.0115 0,0.0115 l 6.55255,20.57956 c 2.94811,3.38569 2.83298,23.17007 2.08442,40.93911 z"
     id="path1960"
     inkscape:connector-curvature="0"
     style="fill:#29282f" />
  <path
     d="m 244.99323,211.37083 -10.9483,-19.87361 7.2357,-2.9639 14.07224,16.5491 a 7.59559,7.59559 0 1 1 -10.35964,6.28841 z"
     id="path1962"
     inkscape:connector-curvature="0"
     style="fill:#ffb6b6" />
  <path
     d="m 208.16982,107.54739 c 1.9475,3.49921 19.75792,12.49882 16.67128,21.53437 0,0 16.73218,52.34808 18.908,52.00643 2.17582,-0.34165 4.29947,5.06555 4.29947,5.06555 0,0 -0.46158,3.52907 0.89553,2.06253 1.35711,-1.46654 1.03239,2.37773 1.03239,2.37773 0,0 -0.65042,3.39305 1.0727,2.47059 1.72312,-0.92246 -0.54247,5.57093 -0.54247,5.57093 l -10.35527,4.87589 -1.96779,-2.92884 c 0,0 -4.20493,-0.80078 -2.22634,-1.43511 1.97859,-0.63433 -1.8606,-2.76931 -1.8606,-2.76931 0,0 -4.01647,-2.72969 -3.45669,-7.25035 0.55978,-4.52066 -10.42269,-13.4076 -10.42269,-13.4076 -7.54974,-14.90624 -11.68,-30.2104 -11.66557,-45.99698 z"
     id="path1964"
     inkscape:connector-curvature="0"
     style="fill:#29282f" />
  <circle
     cx="184.28421"
     cy="76.317093"
     r="16.015329"
     id="circle1966"
     style="fill:#ffb6b6" />
  <path
     d="m 167.7004,78.062302 c 0.50707,3.48014 3.47319,8.335668 2.77855,8.335668 -0.69464,0 -5.63349,-14.346608 -0.69464,-15.282068 3.5824,-0.67853 4.38316,-0.0833 7.73131,-1.53516 l -0.47235,0.44458 c 2.21589,1.61156 5.30008,0.61823 7.82853,-0.43068 2.53544,-1.04196 5.61268,-2.03529 7.83553,-0.43067 1.39622,1.00723 1.98665,2.7577 2.85494,4.24423 0.8683,1.4935 2.47291,2.90359 4.12615,2.44515 a 3.2662,3.2662 0 0 0 2.08391,-3.23009 c -0.007,-1.37538 -1.7979,-2.68378 -1.19476,-3.91778 1.78743,-3.65688 0.18,-6.14947 -3.71633,-7.87023 q -2.12556,-0.323 -4.25117,-0.65991 a 12.05736,12.05736 0 0 1 2.66742,-2.6813 6.095,6.095 0 0 0 -2.1534,-2.75773 6.75958,6.75958 0 0 0 -3.84827,-0.5557 q -4.39701,0.2292 -8.78718,0.45844 a 15.50016,15.50016 0 0 0 -6.34894,1.23647 c -2.41737,1.24339 -4.00112,3.66767 -5.15424,6.13368 -2.58402,5.5432 -2.17421,10.00282 -1.28506,16.0531 z"
     id="path1968"
     inkscape:connector-curvature="0"
     style="fill:#2f2e41" />
  <ellipse
     style="fill:#ffffff"
     cx="-211.49931"
     cy="111.704"
     rx="2.82511"
     ry="4.06109"
     transform="rotate(-81.72174)"
     id="ellipse6" />
  <ellipse
     style="fill:#3f3d56"
     cx="-236.29143"
     cy="120.77043"
     rx="2.8250999"
     ry="4.06109"
     transform="rotate(-81.72174)"
     id="ellipse8" />
  <ellipse
     style="fill:#ff6584"
     cx="-174.9043"
     cy="101.85104"
     rx="2.82511"
     ry="4.06109"
     transform="rotate(-81.72174)"
     id="ellipse10" />
  <ellipse
     style="fill:#e6e6e6"
     cx="-179.04762"
     cy="67.713463"
     rx="2.5666101"
     ry="1.78547"
     transform="rotate(-89.56675)"
     id="ellipse12" />
  <ellipse
     style="fill:#3f3d56"
     cx="-162.75525"
     cy="63.696178"
     rx="2.5666101"
     ry="1.78547"
     transform="rotate(-89.56675)"
     id="ellipse14" />
  <ellipse
     style="fill:#e6e6e6"
     cx="-191.25153"
     cy="94.193474"
     rx="2.5666101"
     ry="1.78547"
     transform="rotate(-89.56675)"
     id="ellipse16" />
  <ellipse
     style="fill:#ff6584"
     cx="-208.92847"
     cy="95.331039"
     rx="2.5666101"
     ry="1.78547"
     transform="rotate(-89.56675)"
     id="ellipse18" />
  <ellipse
     style="fill:#3f3d56"
     cx="-150.87434"
     cy="89.035072"
     rx="2.5666101"
     ry="1.78547"
     transform="rotate(-89.56675)"
     id="ellipse20" />
  <ellipse
     style="fill:#ffffff"
     cx="-80.154266"
     cy="281.35175"
     rx="2.82511"
     ry="4.06109"
     transform="rotate(-81.72174)"
     id="ellipse6-9" />
  <ellipse
     style="fill:#3f3d56"
     cx="-115.29655"
     cy="313.1944"
     rx="2.8250999"
     ry="4.06109"
     transform="rotate(-81.72174)"
     id="ellipse8-1" />
  <ellipse
     style="fill:#ff6584"
     cx="-112.27705"
     cy="345.25668"
     rx="2.82511"
     ry="4.06109"
     transform="rotate(-81.72174)"
     id="ellipse10-2" />
  <ellipse
     style="fill:#e6e6e6"
     cx="-124.04498"
     cy="328.79071"
     rx="2.5666101"
     ry="1.78547"
     transform="rotate(-89.56675)"
     id="ellipse12-7" />
  <ellipse
     style="fill:#3f3d56"
     cx="-88.355392"
     cy="320.56696"
     rx="2.5666101"
     ry="1.78547"
     transform="rotate(-89.56675)"
     id="ellipse14-0" />
  <ellipse
     style="fill:#e6e6e6"
     cx="-92.393456"
     cy="287.51749"
     rx="2.5666101"
     ry="1.78547"
     transform="rotate(-89.56675)"
     id="ellipse16-9" />
  <ellipse
     style="fill:#ff6584"
     cx="-115.33067"
     cy="302.46915"
     rx="2.5666101"
     ry="1.78547"
     transform="rotate(-89.56675)"
     id="ellipse18-3" />
  <ellipse
     style="fill:#3f3d56"
     cx="-86.069527"
     cy="260.84235"
     rx="2.5666101"
     ry="1.78547"
     transform="rotate(-89.56675)"
     id="ellipse20-6" />
</svg>
