<?xml version="1.0" encoding="UTF-8"?>
<!DOCTYPE svg PUBLIC "-//W3C//DTD SVG 1.1//EN" "http://www.w3.org/Graphics/SVG/1.1/DTD/svg11.dtd">
<svg xmlns="http://www.w3.org/2000/svg" version="1.1" width="5660px" height="5000px" style="shape-rendering:geometricPrecision; text-rendering:geometricPrecision; image-rendering:optimizeQuality; fill-rule:evenodd; clip-rule:evenodd" xmlns:xlink="http://www.w3.org/1999/xlink">
<g><path style="opacity:1" fill="#eef1ee" d="M 5104.5,4307.5 C 4678.83,4307.5 4253.17,4307.5 3827.5,4307.5C 3824.17,4307.5 3820.83,4307.5 3817.5,4307.5C 3812.17,4307.5 3806.83,4307.5 3801.5,4307.5C 3778.83,4307.5 3756.17,4307.5 3733.5,4307.5C 3721.17,4307.5 3708.83,4307.5 3696.5,4307.5C 3692.83,4307.5 3689.17,4307.5 3685.5,4307.5C 3506.83,4307.5 3328.17,4307.5 3149.5,4307.5C 3149.5,4007.17 3149.5,3706.83 3149.5,3406.5C 3183.13,3395.95 3199.63,3372.95 3199,3337.5C 3193.63,3305.79 3175.13,3286.96 3143.5,3281C 3070.83,3280.5 2998.17,3280.33 2925.5,3280.5C 2925.06,3266.44 2923.9,3252.44 2922,3238.5C 2915.81,3222.92 2909.81,3207.26 2904,3191.5C 2903.29,3190.62 2902.46,3189.95 2901.5,3189.5C 2908.43,3186.95 2915.27,3183.95 2922,3180.5C 2925.65,3124.56 2928.15,3068.56 2929.5,3012.5C 2930.83,3012.17 2930.83,3011.83 2929.5,3011.5C 2931.47,2920.18 2931.97,2828.85 2931,2737.5C 2930.15,2704.48 2928.82,2671.48 2927,2638.5C 2917.25,2521.37 2911.91,2404.04 2911,2286.5C 2910.31,2177.16 2910.81,2067.83 2912.5,1958.5C 2913.83,1958.17 2913.83,1957.83 2912.5,1957.5C 2913.42,1926.17 2914.08,1894.84 2914.5,1863.5C 2920.25,1861.73 2923.41,1857.73 2924,1851.5C 2924.95,1834.64 2923.62,1817.97 2920,1801.5C 2914.6,1778.57 2908.6,1755.91 2902,1733.5C 2879.53,1664.08 2858.2,1594.08 2838,1523.5C 2831.8,1493.42 2827.46,1463.08 2825,1432.5C 2821.41,1383.61 2828.08,1336.28 2845,1290.5C 2849.81,1279.55 2855.14,1268.89 2861,1258.5C 2880.97,1230.64 2897.97,1200.98 2912,1169.5C 2947.27,1082.53 2975.27,993.195 2996,901.5C 3006.77,857.091 3016.27,812.424 3024.5,767.5C 3025.37,764.218 3025.2,760.885 3024,757.5C 2996.37,639.686 2968.87,521.853 2941.5,404C 2945.2,395.246 2948.7,386.413 2952,377.5C 2953.01,356.198 2949.01,335.864 2940,316.5C 2934.68,312.057 2928.52,309.557 2921.5,309C 2903.71,306.199 2886.38,307.866 2869.5,314C 2862.51,318.94 2859.34,325.773 2860,334.5C 2857.98,331.288 2855.15,329.622 2851.5,329.5C 2847.57,348.707 2846.74,368.041 2849,387.5C 2849.71,389.081 2850.54,390.581 2851.5,392C 2863.53,399.691 2874.7,408.524 2885,418.5C 2887.9,532.155 2890.4,645.822 2892.5,759.5C 2875.41,784.123 2859.24,809.457 2844,835.5C 2815.25,885.997 2786.25,936.33 2757,986.5C 2745.74,1004.69 2733.74,1022.35 2721,1039.5C 2715.07,1046.43 2708.24,1052.26 2700.5,1057C 2684.08,1059.69 2668.08,1064.02 2652.5,1070C 2634.27,1078.02 2616.27,1086.52 2598.5,1095.5C 2587.8,1070.08 2578.47,1044.08 2570.5,1017.5C 2570.37,1015.45 2571.03,1013.78 2572.5,1012.5C 2615.11,983.668 2642.11,944.002 2653.5,893.5C 2652.92,890.689 2652.25,888.023 2651.5,885.5C 2647.97,854.783 2643.97,824.116 2639.5,793.5C 2639.32,785.373 2642.98,780.04 2650.5,777.5C 2655.73,817.67 2661.07,857.836 2666.5,898C 2666.4,900.302 2665.73,902.302 2664.5,904C 2682.56,905.749 2698.06,899.915 2711,886.5C 2712.09,884.922 2712.93,883.255 2713.5,881.5C 2715.48,878.872 2716.98,875.872 2718,872.5C 2719.7,865.255 2720.87,857.922 2721.5,850.5C 2723.7,848.747 2724.87,846.414 2725,843.5C 2725.97,835.681 2725.3,828.014 2723,820.5C 2721.66,816.068 2718.82,813.401 2714.5,812.5C 2713.24,801.651 2708.58,792.651 2700.5,785.5C 2696.84,782.337 2692.84,779.671 2688.5,777.5C 2686.95,762.188 2680.62,749.188 2669.5,738.5C 2666.25,732.736 2662.75,727.069 2659,721.5C 2653.59,714.933 2648.42,708.267 2643.5,701.5C 2642.11,699.443 2641.44,697.109 2641.5,694.5C 2651.73,656.454 2638.4,630.954 2601.5,618C 2592.24,615.948 2582.9,614.281 2573.5,613C 2536.22,581.352 2493.22,568.018 2444.5,573C 2423.42,576.707 2404.42,585.04 2387.5,598C 2361.52,600.574 2340.02,611.74 2323,631.5C 2316.99,639.527 2311.49,647.861 2306.5,656.5C 2285.43,648.682 2269.93,654.682 2260,674.5C 2249.91,705.652 2245.07,737.652 2245.5,770.5C 2238.66,796.035 2234.99,822.035 2234.5,848.5C 2230.81,851.353 2227.65,854.686 2225,858.5C 2223.01,860.818 2221.84,863.484 2221.5,866.5C 2220.07,868.148 2219.24,870.148 2219,872.5C 2218.32,879.861 2218.48,887.195 2219.5,894.5C 2215.05,895.935 2213.39,899.102 2214.5,904C 2214.77,913.148 2217.27,921.648 2222,929.5C 2224.1,930.991 2226.43,931.991 2229,932.5C 2231.61,941.409 2236.44,948.742 2243.5,954.5C 2250.9,960.422 2259.4,963.422 2269,963.5C 2275.45,962.266 2281.95,961.099 2288.5,960C 2290.22,959.261 2291.89,958.427 2293.5,957.5C 2283.51,918.224 2273.85,878.891 2264.5,839.5C 2264.47,838.503 2264.97,837.836 2266,837.5C 2271.93,839.76 2276.26,843.76 2279,849.5C 2282.46,863.639 2285.96,877.639 2289.5,891.5C 2292.45,906.883 2295.95,922.217 2300,937.5C 2300.33,941.167 2300.67,944.833 2301,948.5C 2301.33,947.5 2301.67,946.5 2302,945.5C 2328.53,992.858 2368.03,1023.53 2420.5,1037.5C 2422.81,1038.32 2424.81,1039.66 2426.5,1041.5C 2429.58,1069.41 2430.91,1097.41 2430.5,1125.5C 2392.53,1122.12 2355.19,1125.12 2318.5,1134.5C 2311.63,1133.49 2304.96,1131.66 2298.5,1129C 2281.15,1120.67 2264.49,1111.33 2248.5,1101C 2188.17,1060 2127.83,1019 2067.5,978C 2051.64,968.237 2035.64,958.737 2019.5,949.5C 1991.17,887.5 1962.83,825.5 1934.5,763.5C 1935.55,763.649 1936.55,763.483 1937.5,763C 1982.52,732.465 2026.52,700.632 2069.5,667.5C 2093.17,667.091 2110.34,656.424 2121,635.5C 2123.1,629.344 2123.93,623.01 2123.5,616.5C 2124.32,618.969 2124.82,621.635 2125,624.5C 2241.01,531.514 2353.18,433.681 2461.5,331C 2550.71,252.033 2652.71,194.699 2767.5,159C 2895.34,120.354 3026,104.02 3159.5,110C 3353.56,119.516 3538.9,164.516 3715.5,245C 4015.95,384.449 4251.78,595.949 4423,879.5C 4538.56,1078.17 4613.23,1291.5 4647,1519.5C 4675.25,1716.53 4678.59,1913.86 4657,2111.5C 4644.49,2227.91 4625.49,2343.24 4600,2457.5C 4586.42,2525.62 4577.59,2594.12 4573.5,2663C 4576.84,2668.35 4581.01,2673.19 4586,2677.5C 4617.11,2712.44 4634.44,2753.44 4638,2800.5C 4643.12,2841.43 4643.79,2882.43 4640,2923.5C 4636.38,2954.02 4628.88,2983.52 4617.5,3012C 4636.55,3071.27 4660.71,3128.44 4690,3183.5C 4706.75,3213.99 4723.75,3244.33 4741,3274.5C 4784.43,3344.35 4826.1,3415.35 4866,3487.5C 4899.74,3551.7 4925.4,3619.03 4943,3689.5C 4964.57,3787.86 4967.9,3886.86 4953,3986.5C 4935.49,4096.21 4905.99,4202.54 4864.5,4305.5C 4944.67,4306.17 5024.67,4306.83 5104.5,4307.5 Z"/></g>
<g><path style="opacity:1" fill="#feb5b5" d="M 3024.5,767.5 C 3006.67,776.916 2987.67,780.083 2967.5,777C 2941.85,773.838 2916.85,768.004 2892.5,759.5C 2890.4,645.822 2887.9,532.155 2885,418.5C 2874.7,408.524 2863.53,399.691 2851.5,392C 2850.54,390.581 2849.71,389.081 2849,387.5C 2846.74,368.041 2847.57,348.707 2851.5,329.5C 2855.15,329.622 2857.98,331.288 2860,334.5C 2859.34,325.773 2862.51,318.94 2869.5,314C 2886.38,307.866 2903.71,306.199 2921.5,309C 2928.52,309.557 2934.68,312.057 2940,316.5C 2949.01,335.864 2953.01,356.198 2952,377.5C 2948.7,386.413 2945.2,395.246 2941.5,404C 2968.87,521.853 2996.37,639.686 3024,757.5C 3025.2,760.885 3025.37,764.218 3024.5,767.5 Z"/></g>
<g><path style="opacity:1" fill="#e7a639" d="M 1981.5,383.5 C 1972.19,390.469 1962.86,397.469 1953.5,404.5C 1953.34,402.143 1953.5,399.81 1954,397.5C 1961.47,387.215 1966.81,375.882 1970,363.5C 1973.31,339.143 1962.81,328.31 1938.5,331C 1924.67,334.169 1915.17,342.336 1910,355.5C 1905.18,369.767 1902.51,384.434 1902,399.5C 1901.34,415.164 1900.84,430.83 1900.5,446.5C 1899.52,449.287 1899.19,452.287 1899.5,455.5C 1891.77,464.607 1884.77,474.273 1878.5,484.5C 1877.68,485.386 1876.68,485.719 1875.5,485.5C 1868.3,484.137 1863.8,479.803 1862,472.5C 1861.19,467.625 1861.86,462.958 1864,458.5C 1871.33,452.302 1876.49,453.802 1879.5,463C 1878.88,464.841 1878.71,466.674 1879,468.5C 1879.67,467.833 1880.33,467.167 1881,466.5C 1882.93,460.327 1883.93,453.994 1884,447.5C 1884.3,429.152 1884.97,410.819 1886,392.5C 1886.52,372.09 1891.85,353.09 1902,335.5C 1917.03,318.157 1935.86,311.323 1958.5,315C 1975.19,320.545 1984.69,332.045 1987,349.5C 1987.82,361.264 1985.99,372.598 1981.5,383.5 Z"/></g>
<g><path style="opacity:1" fill="#e6a434" d="M 2131.5,553.5 C 2131.92,552.778 2132.58,552.278 2133.5,552C 2098.98,485.455 2064.65,418.955 2030.5,352.5C 2026.09,343.315 2028.76,337.315 2038.5,334.5C 2041.76,334.974 2044.6,336.307 2047,338.5C 2082.95,408.073 2118.62,477.74 2154,547.5C 2155.84,555.985 2152.51,560.985 2144,562.5C 2138.92,561.966 2135.58,559.299 2134,554.5C 2133.33,553.748 2132.5,553.414 2131.5,553.5 Z"/></g>
<g><path style="opacity:1" fill="#feb93f" d="M 2030.5,352.5 C 2064.65,418.955 2098.98,485.455 2133.5,552C 2132.58,552.278 2131.92,552.778 2131.5,553.5C 2114.81,562.179 2097.48,569.512 2079.5,575.5C 2068.49,579.391 2057.49,583.058 2046.5,586.5C 2023.98,593.271 2000.98,597.604 1977.5,599.5C 1963.53,600.429 1949.53,600.762 1935.5,600.5C 1922.35,599.379 1909.68,596.379 1897.5,591.5C 1890.24,588.534 1883.57,584.534 1877.5,579.5C 1867.6,570.369 1861.93,559.035 1860.5,545.5C 1860.5,545.167 1860.5,544.833 1860.5,544.5C 1859.7,523.873 1865.04,504.873 1876.5,487.5C 1876.14,486.817 1875.8,486.15 1875.5,485.5C 1876.68,485.719 1877.68,485.386 1878.5,484.5C 1884.77,474.273 1891.77,464.607 1899.5,455.5C 1900.5,455.167 1901.17,454.5 1901.5,453.5C 1916.94,435.054 1934.28,418.721 1953.5,404.5C 1962.86,397.469 1972.19,390.469 1981.5,383.5C 1996.98,373.034 2012.98,363.367 2029.5,354.5C 2030.3,354.043 2030.63,353.376 2030.5,352.5 Z"/></g>
<g><path style="opacity:1" fill="#f7dcad" d="M 1900.5,446.5 C 1900.2,449.059 1900.53,451.393 1901.5,453.5C 1901.17,454.5 1900.5,455.167 1899.5,455.5C 1899.19,452.287 1899.52,449.287 1900.5,446.5 Z"/></g>
<g><path style="opacity:1" fill="#87d1cd" d="M 3533.5,633.5 C 3540.01,623.157 3546.01,612.49 3551.5,601.5C 3563.34,580.304 3570.34,557.637 3572.5,533.5C 3572.48,527.694 3571.98,522.027 3571,516.5C 3586.97,508.763 3603.14,501.43 3619.5,494.5C 3617.01,533.146 3604.18,567.813 3581,598.5C 3567.72,613.716 3551.88,625.382 3533.5,633.5 Z"/></g>
<g><path style="opacity:1" fill="#f99746" d="M 1711.5,526.5 C 1712.32,529.871 1713.49,533.204 1715,536.5C 1744.86,594.228 1774.7,651.895 1804.5,709.5C 1808.91,717.316 1813.08,725.316 1817,733.5C 1817.8,737.107 1816.96,740.274 1814.5,743C 1767.66,767.255 1720.66,791.255 1673.5,815C 1669.58,815.959 1666.41,814.792 1664,811.5C 1623.81,733.948 1584.31,656.114 1545.5,578C 1545.5,574.667 1546.83,572 1549.5,570C 1595.99,546.589 1642.32,522.922 1688.5,499C 1692.79,497.798 1696.29,498.965 1699,502.5C 1702.94,510.719 1707.11,518.719 1711.5,526.5 Z"/></g>
<g><path style="opacity:1" fill="#feb940" d="M 1782.5,583.5 C 1782.5,584.167 1782.83,584.5 1783.5,584.5C 1789.45,595.409 1795.12,606.409 1800.5,617.5C 1803.53,625.586 1806.53,633.586 1809.5,641.5C 1814.47,657.472 1816.31,673.805 1815,690.5C 1814.06,698.39 1810.56,704.723 1804.5,709.5C 1774.7,651.895 1744.86,594.228 1715,536.5C 1713.49,533.204 1712.32,529.871 1711.5,526.5C 1717.09,524.414 1722.76,524.581 1728.5,527C 1743.39,534.55 1755.89,545.05 1766,558.5C 1772.51,566.205 1778.01,574.538 1782.5,583.5 Z"/></g>
<g><path style="opacity:1" fill="#fdb6b5" d="M 1860.5,544.5 C 1860.5,544.833 1860.5,545.167 1860.5,545.5C 1857.08,562.495 1848.41,576.328 1834.5,587C 1820.68,591.541 1806.68,592.207 1792.5,589C 1789.43,587.463 1786.43,585.963 1783.5,584.5C 1782.83,584.5 1782.5,584.167 1782.5,583.5C 1783.5,583.53 1784.16,583.03 1784.5,582C 1783.06,576.66 1783.56,571.493 1786,566.5C 1802.4,550.469 1822.06,540.802 1845,537.5C 1851.14,537.822 1856.31,540.155 1860.5,544.5 Z"/></g>
<g><path style="opacity:1" fill="#2f2e41" d="M 2643.5,701.5 C 2604,659.917 2555.67,637.583 2498.5,634.5C 2441.04,629.355 2386.37,639.855 2334.5,666C 2332.31,667.067 2330.64,668.567 2329.5,670.5C 2328.88,670.389 2328.38,670.056 2328,669.5C 2288.18,693.155 2260.68,726.822 2245.5,770.5C 2245.07,737.652 2249.91,705.652 2260,674.5C 2269.93,654.682 2285.43,648.682 2306.5,656.5C 2311.49,647.861 2316.99,639.527 2323,631.5C 2340.02,611.74 2361.52,600.574 2387.5,598C 2404.42,585.04 2423.42,576.707 2444.5,573C 2493.22,568.018 2536.22,581.352 2573.5,613C 2582.9,614.281 2592.24,615.948 2601.5,618C 2638.4,630.954 2651.73,656.454 2641.5,694.5C 2641.44,697.109 2642.11,699.443 2643.5,701.5 Z"/></g>
<g><path style="opacity:1" fill="#feb5b5" d="M 1877.5,579.5 C 1883.57,584.534 1890.24,588.534 1897.5,591.5C 1897.49,594.204 1897.33,597.204 1897,600.5C 1889.76,612.99 1883.59,625.99 1878.5,639.5C 1897.18,680.85 1915.84,722.183 1934.5,763.5C 1962.83,825.5 1991.17,887.5 2019.5,949.5C 2000.36,968.727 1979.36,985.56 1956.5,1000C 1940.29,1010.3 1922.62,1014.8 1903.5,1013.5C 1902.07,1011.85 1901.24,1009.85 1901,1007.5C 1886.8,942.967 1872.3,878.633 1857.5,814.5C 1845.34,759.847 1833.17,705.181 1821,650.5C 1817.03,647.536 1813.37,644.203 1810,640.5C 1809.6,640.728 1809.43,641.062 1809.5,641.5C 1806.53,633.586 1803.53,625.586 1800.5,617.5C 1802.94,612.895 1806.61,609.395 1811.5,607C 1829.81,595.845 1849.14,586.845 1869.5,580C 1872.15,579.503 1874.81,579.336 1877.5,579.5 Z"/></g>
<g><path style="opacity:1" fill="#feb83e" d="M 1687.5,577.5 C 1688.38,577.369 1689.04,577.702 1689.5,578.5C 1709.44,617.975 1729.78,657.309 1750.5,696.5C 1738.15,703.676 1725.48,710.343 1712.5,716.5C 1691.59,677.025 1670.93,637.359 1650.5,597.5C 1662.94,590.816 1675.27,584.15 1687.5,577.5 Z"/></g>
<g><path style="opacity:1" fill="#e4a130" d="M 1860.5,545.5 C 1861.93,559.035 1867.6,570.369 1877.5,579.5C 1874.81,579.336 1872.15,579.503 1869.5,580C 1849.14,586.845 1829.81,595.845 1811.5,607C 1806.61,609.395 1802.94,612.895 1800.5,617.5C 1795.12,606.409 1789.45,595.409 1783.5,584.5C 1786.43,585.963 1789.43,587.463 1792.5,589C 1806.68,592.207 1820.68,591.541 1834.5,587C 1848.41,576.328 1857.08,562.495 1860.5,545.5 Z"/></g>
<g><path style="opacity:1" fill="#6bb7bf" d="M 3551.5,601.5 C 3546.01,612.49 3540.01,623.157 3533.5,633.5C 3513.42,639.028 3493.42,638.528 3473.5,632C 3462.44,628.933 3452.11,624.433 3442.5,618.5C 3448.67,606.833 3454.83,595.167 3461,583.5C 3479.03,600.952 3500.53,609.118 3525.5,608C 3534.28,606.146 3542.94,603.98 3551.5,601.5 Z"/></g>
<g><path style="opacity:1" fill="#e7a638" d="M 2079.5,575.5 C 2095.11,579.053 2107.94,587.053 2118,599.5C 2121.53,604.633 2123.37,610.3 2123.5,616.5C 2123.93,623.01 2123.1,629.344 2121,635.5C 2110.34,656.424 2093.17,667.091 2069.5,667.5C 2054.9,666.468 2041.24,662.302 2028.5,655C 2005.49,640.832 1982.83,626.165 1960.5,611C 1957.23,609.277 1953.89,608.777 1950.5,609.5C 1959.61,612.992 1961.28,618.492 1955.5,626C 1945.47,627.898 1938.3,624.065 1934,614.5C 1933.03,609.61 1933.53,604.943 1935.5,600.5C 1949.53,600.762 1963.53,600.429 1977.5,599.5C 1977.08,600.222 1976.42,600.722 1975.5,601C 1993.17,612.667 2010.83,624.333 2028.5,636C 2040.06,642.948 2052.39,647.948 2065.5,651C 2080.65,652.343 2093.15,647.177 2103,635.5C 2110.66,622.125 2108.5,610.625 2096.5,601C 2082.99,592.957 2068.33,589.29 2052.5,590C 2050.11,589.436 2048.11,588.27 2046.5,586.5C 2057.49,583.058 2068.49,579.391 2079.5,575.5 Z"/></g>
<g><path style="opacity:1" fill="#3e3c55" d="M 2498.5,634.5 C 2504.66,640.539 2505.16,647.205 2500,654.5C 2493.24,661.461 2485.4,666.794 2476.5,670.5C 2443.28,672.443 2410.78,678.443 2379,688.5C 2376.57,687.678 2374.07,687.344 2371.5,687.5C 2358.2,687.261 2345.87,683.761 2334.5,677C 2332.23,675.242 2330.57,673.075 2329.5,670.5C 2330.64,668.567 2332.31,667.067 2334.5,666C 2386.37,639.855 2441.04,629.355 2498.5,634.5 Z"/></g>
<g><path style="opacity:1" fill="#29282f" d="M 2498.5,634.5 C 2555.67,637.583 2604,659.917 2643.5,701.5C 2648.42,708.267 2653.59,714.933 2659,721.5C 2662.75,727.069 2666.25,732.736 2669.5,738.5C 2676.04,750.248 2681.54,762.581 2686,775.5C 2686.71,776.381 2687.54,777.047 2688.5,777.5C 2692.84,779.671 2696.84,782.337 2700.5,785.5C 2705.27,817.436 2709.6,849.436 2713.5,881.5C 2712.93,883.255 2712.09,884.922 2711,886.5C 2698.06,899.915 2682.56,905.749 2664.5,904C 2665.73,902.302 2666.4,900.302 2666.5,898C 2661.07,857.836 2655.73,817.67 2650.5,777.5C 2655.25,775.677 2660.25,774.343 2665.5,773.5C 2642.98,734.745 2610.98,706.912 2569.5,690C 2539.53,677.917 2508.53,671.417 2476.5,670.5C 2485.4,666.794 2493.24,661.461 2500,654.5C 2505.16,647.205 2504.66,640.539 2498.5,634.5 Z"/></g>
<g><path style="opacity:1" fill="#29282f" d="M 2329.5,670.5 C 2330.57,673.075 2332.23,675.242 2334.5,677C 2345.87,683.761 2358.2,687.261 2371.5,687.5C 2372.95,688.302 2374.62,688.802 2376.5,689C 2339.08,699.124 2307.25,718.291 2281,746.5C 2263.73,768.584 2253.56,793.584 2250.5,821.5C 2249.39,828.17 2249.39,834.837 2250.5,841.5C 2252.53,840.828 2254.53,840.162 2256.5,839.5C 2259.17,839.5 2261.83,839.5 2264.5,839.5C 2273.85,878.891 2283.51,918.224 2293.5,957.5C 2291.89,958.427 2290.22,959.261 2288.5,960C 2281.95,961.099 2275.45,962.266 2269,963.5C 2259.4,963.422 2250.9,960.422 2243.5,954.5C 2236.79,924.987 2229.46,895.654 2221.5,866.5C 2221.84,863.484 2223.01,860.818 2225,858.5C 2227.65,854.686 2230.81,851.353 2234.5,848.5C 2234.99,822.035 2238.66,796.035 2245.5,770.5C 2260.68,726.822 2288.18,693.155 2328,669.5C 2328.38,670.056 2328.88,670.389 2329.5,670.5 Z"/></g>
<g><path style="opacity:1" fill="#2f2e41" d="M 2476.5,670.5 C 2508.53,671.417 2539.53,677.917 2569.5,690C 2610.98,706.912 2642.98,734.745 2665.5,773.5C 2660.25,774.343 2655.25,775.677 2650.5,777.5C 2642.98,780.04 2639.32,785.373 2639.5,793.5C 2643.97,824.116 2647.97,854.783 2651.5,885.5C 2644.49,866.786 2639.32,847.453 2636,827.5C 2632.74,805.535 2629.74,783.535 2627,761.5C 2621.41,739.44 2607.24,727.274 2584.5,725C 2567.03,723.789 2549.7,724.789 2532.5,728C 2494.51,736.332 2456.51,744.665 2418.5,753C 2397.95,756.543 2377.28,759.21 2356.5,761C 2324.15,766.678 2302.99,785.178 2293,816.5C 2287.07,841.255 2285.9,866.255 2289.5,891.5C 2285.96,877.639 2282.46,863.639 2279,849.5C 2276.26,843.76 2271.93,839.76 2266,837.5C 2264.97,837.836 2264.47,838.503 2264.5,839.5C 2261.83,839.5 2259.17,839.5 2256.5,839.5C 2254.27,833.483 2252.27,827.483 2250.5,821.5C 2253.56,793.584 2263.73,768.584 2281,746.5C 2307.25,718.291 2339.08,699.124 2376.5,689C 2374.62,688.802 2372.95,688.302 2371.5,687.5C 2374.07,687.344 2376.57,687.678 2379,688.5C 2410.78,678.443 2443.28,672.443 2476.5,670.5 Z"/></g>
<g><path style="opacity:1" fill="#feb5b5" d="M 2651.5,885.5 C 2652.25,888.023 2652.92,890.689 2653.5,893.5C 2642.11,944.002 2615.11,983.668 2572.5,1012.5C 2570.8,1012.34 2569.13,1012.51 2567.5,1013C 2565.92,1015 2563.92,1016.5 2561.5,1017.5C 2558.85,1017.12 2556.19,1017.62 2553.5,1019C 2551.74,1021.75 2549.41,1022.58 2546.5,1021.5C 2543.88,1023.69 2540.88,1025.36 2537.5,1026.5C 2524.5,1029.34 2511.83,1032.34 2499.5,1035.5C 2496.83,1034.82 2494.16,1035.15 2491.5,1036.5C 2490.83,1036.17 2490.17,1035.83 2489.5,1035.5C 2482.52,1036.21 2475.52,1037.21 2468.5,1038.5C 2452.54,1038.79 2436.54,1038.46 2420.5,1037.5C 2368.03,1023.53 2328.53,992.858 2302,945.5C 2301.67,946.5 2301.33,947.5 2301,948.5C 2300.67,944.833 2300.33,941.167 2300,937.5C 2295.95,922.217 2292.45,906.883 2289.5,891.5C 2285.9,866.255 2287.07,841.255 2293,816.5C 2302.99,785.178 2324.15,766.678 2356.5,761C 2377.28,759.21 2397.95,756.543 2418.5,753C 2456.51,744.665 2494.51,736.332 2532.5,728C 2549.7,724.789 2567.03,723.789 2584.5,725C 2607.24,727.274 2621.41,739.44 2627,761.5C 2629.74,783.535 2632.74,805.535 2636,827.5C 2639.32,847.453 2644.49,866.786 2651.5,885.5 Z"/></g>
<g><path style="opacity:1" fill="#363547" d="M 2669.5,738.5 C 2680.62,749.188 2686.95,762.188 2688.5,777.5C 2687.54,777.047 2686.71,776.381 2686,775.5C 2681.54,762.581 2676.04,750.248 2669.5,738.5 Z"/></g>
<g><path style="opacity:1" fill="#29282f" d="M 2892.5,759.5 C 2916.85,768.004 2941.85,773.838 2967.5,777C 2987.67,780.083 3006.67,776.916 3024.5,767.5C 3016.27,812.424 3006.77,857.091 2996,901.5C 2975.27,993.195 2947.27,1082.53 2912,1169.5C 2897.97,1200.98 2880.97,1230.64 2861,1258.5C 2855.14,1268.89 2849.81,1279.55 2845,1290.5C 2828.08,1336.28 2821.41,1383.61 2825,1432.5C 2827.46,1463.08 2831.8,1493.42 2838,1523.5C 2858.2,1594.08 2879.53,1664.08 2902,1733.5C 2908.6,1755.91 2914.6,1778.57 2920,1801.5C 2923.62,1817.97 2924.95,1834.64 2924,1851.5C 2923.41,1857.73 2920.25,1861.73 2914.5,1863.5C 2833.19,1894.5 2749.85,1918.66 2664.5,1936C 2581.4,1949.6 2497.74,1956.1 2413.5,1955.5C 2409.16,1954.57 2405.66,1952.24 2403,1948.5C 2396.8,1938.28 2392.47,1927.28 2390,1915.5C 2385.11,1892.05 2381.78,1868.39 2380,1844.5C 2377,1793.12 2373.33,1741.78 2369,1690.5C 2366.06,1662.25 2361.73,1634.25 2356,1606.5C 2347.28,1566.29 2337.61,1526.29 2327,1486.5C 2320.22,1461.84 2310.89,1438.18 2299,1415.5C 2291.45,1406.62 2282.95,1398.79 2273.5,1392C 2242.86,1374.68 2213.86,1355.01 2186.5,1333C 2161.33,1311.49 2137.16,1288.99 2114,1265.5C 2037.95,1185.99 1967.78,1101.99 1903.5,1013.5C 1922.62,1014.8 1940.29,1010.3 1956.5,1000C 1979.36,985.56 2000.36,968.727 2019.5,949.5C 2035.64,958.737 2051.64,968.237 2067.5,978C 2127.83,1019 2188.17,1060 2248.5,1101C 2264.49,1111.33 2281.15,1120.67 2298.5,1129C 2304.96,1131.66 2311.63,1133.49 2318.5,1134.5C 2355.19,1125.12 2392.53,1122.12 2430.5,1125.5C 2452.12,1148.9 2478.45,1164.74 2509.5,1173C 2515.49,1173.87 2521.49,1174.2 2527.5,1174C 2559.36,1155.3 2583.03,1129.13 2598.5,1095.5C 2616.27,1086.52 2634.27,1078.02 2652.5,1070C 2668.08,1064.02 2684.08,1059.69 2700.5,1057C 2708.24,1052.26 2715.07,1046.43 2721,1039.5C 2733.74,1022.35 2745.74,1004.69 2757,986.5C 2786.25,936.33 2815.25,885.997 2844,835.5C 2859.24,809.457 2875.41,784.123 2892.5,759.5 Z"/></g>
<g><path style="opacity:1" fill="#413f57" d="M 2700.5,785.5 C 2708.58,792.651 2713.24,801.651 2714.5,812.5C 2718.82,813.401 2721.66,816.068 2723,820.5C 2725.3,828.014 2725.97,835.681 2725,843.5C 2724.87,846.414 2723.7,848.747 2721.5,850.5C 2720.87,857.922 2719.7,865.255 2718,872.5C 2716.98,875.872 2715.48,878.872 2713.5,881.5C 2709.6,849.436 2705.27,817.436 2700.5,785.5 Z"/></g>
<g><path style="opacity:1" fill="#3e3c54" d="M 2662.5,792.5 C 2664.9,792.393 2666.74,793.393 2668,795.5C 2673.92,806.438 2674.92,817.772 2671,829.5C 2668.37,832.192 2666.03,831.859 2664,828.5C 2659.24,819.386 2657.58,809.72 2659,799.5C 2659.65,796.861 2660.82,794.527 2662.5,792.5 Z"/></g>
<g><path style="opacity:1" fill="#eef1ee" d="M 1857.5,814.5 C 1872.3,878.633 1886.8,942.967 1901,1007.5C 1901.24,1009.85 1902.07,1011.85 1903.5,1013.5C 1967.78,1101.99 2037.95,1185.99 2114,1265.5C 2137.16,1288.99 2161.33,1311.49 2186.5,1333C 2213.86,1355.01 2242.86,1374.68 2273.5,1392C 2282.95,1398.79 2291.45,1406.62 2299,1415.5C 2310.89,1438.18 2320.22,1461.84 2327,1486.5C 2337.61,1526.29 2347.28,1566.29 2356,1606.5C 2361.73,1634.25 2366.06,1662.25 2369,1690.5C 2373.33,1741.78 2377,1793.12 2380,1844.5C 2381.78,1868.39 2385.11,1892.05 2390,1915.5C 2392.47,1927.28 2396.8,1938.28 2403,1948.5C 2405.66,1952.24 2409.16,1954.57 2413.5,1955.5C 2415.69,2088.17 2415.85,2220.83 2414,2353.5C 2412.49,2444.67 2407.83,2535.67 2400,2626.5C 2398.27,2654.81 2396.94,2683.15 2396,2711.5C 2392.32,2867.95 2394.98,3024.28 2404,3180.5C 2410.52,3183.68 2417.02,3186.68 2423.5,3189.5C 2417.26,3204.36 2411.09,3219.36 2405,3234.5C 2402.12,3249.69 2400.62,3265.02 2400.5,3280.5C 2326.83,3280.33 2253.17,3280.5 2179.5,3281C 2149.89,3287.61 2132.06,3305.78 2126,3335.5C 2124.35,3371.99 2140.85,3395.66 2175.5,3406.5C 2175.5,3706.83 2175.5,4007.17 2175.5,4307.5C 1726.5,4307.5 1277.5,4307.5 828.5,4307.5C 920.666,4306.67 1013,4306.17 1105.5,4306C 1012.2,4205.13 927.698,4097.63 852,3983.5C 714.1,3776.7 607.1,3554.37 531,3316.5C 465.936,3109.17 430.27,2896.84 424,2679.5C 415.374,2502.91 422.041,2326.91 444,2151.5C 463.324,1998.54 500.657,1850.2 556,1706.5C 706.973,1329.2 978.14,1085.7 1369.5,976C 1442.31,956.704 1515.98,941.371 1590.5,930C 1660.42,912.374 1727.09,886.374 1790.5,852C 1812.89,839.476 1835.22,826.976 1857.5,814.5 Z"/></g>
<g><path style="opacity:1" fill="#e4edf4" d="M 2250.5,821.5 C 2252.27,827.483 2254.27,833.483 2256.5,839.5C 2254.53,840.162 2252.53,840.828 2250.5,841.5C 2249.39,834.837 2249.39,828.17 2250.5,821.5 Z"/></g>
<g><path style="opacity:1" fill="#3e3c54" d="M 2670.5,842.5 C 2673.26,842.744 2675.43,844.077 2677,846.5C 2682.08,857.251 2682.75,868.251 2679,879.5C 2676.12,881.028 2673.79,880.362 2672,877.5C 2667.2,867.587 2665.87,857.254 2668,846.5C 2668.66,845.016 2669.5,843.683 2670.5,842.5 Z"/></g>
<g><path style="opacity:1" fill="#403e56" d="M 2221.5,866.5 C 2229.46,895.654 2236.79,924.987 2243.5,954.5C 2236.44,948.742 2231.61,941.409 2229,932.5C 2226.43,931.991 2224.1,930.991 2222,929.5C 2217.27,921.648 2214.77,913.148 2214.5,904C 2213.39,899.102 2215.05,895.935 2219.5,894.5C 2218.48,887.195 2218.32,879.861 2219,872.5C 2219.24,870.148 2220.07,868.148 2221.5,866.5 Z"/></g>
<g><path style="opacity:1" fill="#3e3c54" d="M 2243.5,886.5 C 2246.65,885.959 2249.15,886.959 2251,889.5C 2258.12,900.051 2259.62,911.217 2255.5,923C 2252.69,923.92 2250.53,923.087 2249,920.5C 2242.29,909.888 2240.45,898.554 2243.5,886.5 Z"/></g>
<g><path style="opacity:1" fill="#be7a7b" d="M 2572.5,1012.5 C 2571.03,1013.78 2570.37,1015.45 2570.5,1017.5C 2569.5,1017.5 2568.5,1017.5 2567.5,1017.5C 2566.3,1019.73 2565.13,1022.07 2564,1024.5C 2548.8,1043.92 2528.96,1055.75 2504.5,1060C 2492.84,1060.5 2481.17,1060.67 2469.5,1060.5C 2469.5,1059.5 2469.5,1058.5 2469.5,1057.5C 2466.29,1057.59 2463.12,1057.26 2460,1056.5C 2451.37,1052.35 2442.71,1048.35 2434,1044.5C 2432.55,1041.97 2430.38,1040.31 2427.5,1039.5C 2426.7,1039.96 2426.37,1040.62 2426.5,1041.5C 2424.81,1039.66 2422.81,1038.32 2420.5,1037.5C 2436.54,1038.46 2452.54,1038.79 2468.5,1038.5C 2475.52,1037.21 2482.52,1036.21 2489.5,1035.5C 2490.17,1035.83 2490.83,1036.17 2491.5,1036.5C 2494.16,1035.15 2496.83,1034.82 2499.5,1035.5C 2511.83,1032.34 2524.5,1029.34 2537.5,1026.5C 2540.88,1025.36 2543.88,1023.69 2546.5,1021.5C 2549.41,1022.58 2551.74,1021.75 2553.5,1019C 2556.19,1017.62 2558.85,1017.12 2561.5,1017.5C 2563.92,1016.5 2565.92,1015 2567.5,1013C 2569.13,1012.51 2570.8,1012.34 2572.5,1012.5 Z"/></g>
<g><path style="opacity:1" fill="#feb5b5" d="M 2570.5,1017.5 C 2578.47,1044.08 2587.8,1070.08 2598.5,1095.5C 2583.03,1129.13 2559.36,1155.3 2527.5,1174C 2521.49,1174.2 2515.49,1173.87 2509.5,1173C 2478.45,1164.74 2452.12,1148.9 2430.5,1125.5C 2430.91,1097.41 2429.58,1069.41 2426.5,1041.5C 2426.37,1040.62 2426.7,1039.96 2427.5,1039.5C 2430.38,1040.31 2432.55,1041.97 2434,1044.5C 2442.71,1048.35 2451.37,1052.35 2460,1056.5C 2463.12,1057.26 2466.29,1057.59 2469.5,1057.5C 2469.5,1058.5 2469.5,1059.5 2469.5,1060.5C 2481.17,1060.67 2492.84,1060.5 2504.5,1060C 2528.96,1055.75 2548.8,1043.92 2564,1024.5C 2565.13,1022.07 2566.3,1019.73 2567.5,1017.5C 2568.5,1017.5 2569.5,1017.5 2570.5,1017.5 Z"/></g>
<g><path style="opacity:1" fill="#ed7d2c" d="M 3542.5,1186.5 C 3546.83,1186.5 3551.17,1186.5 3555.5,1186.5C 3556.88,1196.26 3560.71,1204.93 3567,1212.5C 3575.34,1223.07 3585.17,1231.9 3596.5,1239C 3597.75,1241.21 3597.58,1243.38 3596,1245.5C 3590.21,1251.81 3583.04,1255.65 3574.5,1257C 3565.26,1259.08 3555.93,1259.75 3546.5,1259C 3536.18,1252.35 3528.35,1243.52 3523,1232.5C 3517.34,1222.19 3512.51,1211.52 3508.5,1200.5C 3511.26,1197.28 3514.59,1194.78 3518.5,1193C 3526.46,1190.18 3534.46,1188.01 3542.5,1186.5 Z"/></g>
<g><path style="opacity:1" fill="#86d1cd" d="M 1928.5,1710.5 C 1918.31,1696.8 1907.65,1683.47 1896.5,1670.5C 1875.81,1644.63 1850.81,1624.13 1821.5,1609C 1813.61,1605.11 1805.28,1602.94 1796.5,1602.5C 1794.9,1577.52 1793.57,1552.52 1792.5,1527.5C 1834.91,1546.39 1869.74,1574.73 1897,1612.5C 1917.43,1641.96 1927.93,1674.62 1928.5,1710.5 Z"/></g>
<g><path style="opacity:1" fill="#ed7d2c" d="M 1025.5,1573.5 C 1027.5,1573.5 1029.5,1573.5 1031.5,1573.5C 1033.42,1583 1037.25,1591.67 1043,1599.5C 1052.26,1610.77 1062.76,1620.6 1074.5,1629C 1072.58,1634.59 1068.91,1638.59 1063.5,1641C 1049.93,1646.04 1035.93,1647.71 1021.5,1646C 1018.06,1643.86 1014.89,1641.36 1012,1638.5C 1000.3,1623.44 991.47,1606.78 985.5,1588.5C 985.529,1586.97 986.196,1585.8 987.5,1585C 991.221,1582.47 995.221,1580.47 999.5,1579C 1008.29,1577.08 1016.95,1575.24 1025.5,1573.5 Z"/></g>
<g><path style="opacity:1" fill="#759af0" d="M 4311.5,1661.5 C 4291.85,1659.83 4274.19,1664.83 4258.5,1676.5C 4234.3,1691.53 4214.97,1711.36 4200.5,1736C 4177.83,1738.32 4155.17,1739.49 4132.5,1739.5C 4140.55,1720.61 4152.89,1705.11 4169.5,1693C 4202.14,1672.59 4237.81,1661.92 4276.5,1661C 4288.34,1660.17 4300.01,1660.34 4311.5,1661.5 Z"/></g>
<g><path style="opacity:1" fill="#5785d7" d="M 4311.5,1661.5 C 4334.73,1662.63 4356.06,1669.46 4375.5,1682C 4378.5,1685 4381.5,1688 4384.5,1691C 4365.28,1699.77 4345.95,1708.27 4326.5,1716.5C 4313.61,1698.44 4296.61,1685.94 4275.5,1679C 4269.94,1677.42 4264.27,1676.59 4258.5,1676.5C 4274.19,1664.83 4291.85,1659.83 4311.5,1661.5 Z"/></g>
<g><path style="opacity:1" fill="#6bb7bf" d="M 1896.5,1670.5 C 1907.65,1683.47 1918.31,1696.8 1928.5,1710.5C 1927.78,1728.62 1922.95,1745.62 1914,1761.5C 1900.71,1784.81 1883.71,1805.14 1863,1822.5C 1851.02,1808.35 1838.85,1794.35 1826.5,1780.5C 1849.18,1769.32 1867.68,1753.32 1882,1732.5C 1892.18,1713.11 1897.01,1692.44 1896.5,1670.5 Z"/></g>
<g><path style="opacity:1" fill="#f99746" d="M 2914.5,1863.5 C 2914.08,1894.84 2913.42,1926.17 2912.5,1957.5C 2912.5,1957.83 2912.5,1958.17 2912.5,1958.5C 2910.81,2067.83 2910.31,2177.16 2911,2286.5C 2911.91,2404.04 2917.25,2521.37 2927,2638.5C 2928.82,2671.48 2930.15,2704.48 2931,2737.5C 2931.97,2828.85 2931.47,2920.18 2929.5,3011.5C 2929.5,3011.83 2929.5,3012.17 2929.5,3012.5C 2928.15,3068.56 2925.65,3124.56 2922,3180.5C 2915.27,3183.95 2908.43,3186.95 2901.5,3189.5C 2868.23,3199.67 2834.9,3200 2801.5,3190.5C 2793.39,3187.85 2785.56,3184.52 2778,3180.5C 2748.66,3008.11 2723.33,2835.11 2702,2661.5C 2699.07,2633.23 2697.24,2604.9 2696.5,2576.5C 2728.16,2470.57 2745.49,2362.24 2748.5,2251.5C 2749.28,2205.83 2743.12,2161.16 2730,2117.5C 2729.33,2116.17 2728.67,2114.83 2728,2113.5C 2698.72,2161.72 2676.89,2213.05 2662.5,2267.5C 2662.75,2269.86 2663.09,2272.19 2663.5,2274.5C 2653.66,2337.85 2645.16,2401.51 2638,2465.5C 2632.42,2517.03 2629.08,2568.69 2628,2620.5C 2622.32,2682.7 2614.98,2744.7 2606,2806.5C 2588.41,2931.46 2569.08,3056.12 2548,3180.5C 2540.36,3184.54 2532.52,3187.87 2524.5,3190.5C 2490.76,3200.07 2457.09,3199.73 2423.5,3189.5C 2417.02,3186.68 2410.52,3183.68 2404,3180.5C 2394.98,3024.28 2392.32,2867.95 2396,2711.5C 2396.94,2683.15 2398.27,2654.81 2400,2626.5C 2407.83,2535.67 2412.49,2444.67 2414,2353.5C 2415.85,2220.83 2415.69,2088.17 2413.5,1955.5C 2497.74,1956.1 2581.4,1949.6 2664.5,1936C 2749.85,1918.66 2833.19,1894.5 2914.5,1863.5 Z"/></g>
<g><path style="opacity:1" fill="#ed7d2b" d="M 2696.5,2576.5 C 2695.33,2545.76 2693.16,2515.1 2690,2484.5C 2682.14,2414.37 2673.31,2344.37 2663.5,2274.5C 2663.09,2272.19 2662.75,2269.86 2662.5,2267.5C 2676.89,2213.05 2698.72,2161.72 2728,2113.5C 2728.67,2114.83 2729.33,2116.17 2730,2117.5C 2743.12,2161.16 2749.28,2205.83 2748.5,2251.5C 2745.49,2362.24 2728.16,2470.57 2696.5,2576.5 Z"/></g>
<g><path style="opacity:1" fill="#6bb7bf" d="M 3445.5,2264.5 C 3428.82,2265.72 3412.15,2265.72 3395.5,2264.5C 3388.5,2259.67 3382.67,2253.67 3378,2246.5C 3367.32,2229.46 3359.65,2211.13 3355,2191.5C 3352.02,2177.65 3350.18,2163.65 3349.5,2149.5C 3367.17,2148.99 3384.84,2148.32 3402.5,2147.5C 3391.93,2195.96 3406.26,2234.96 3445.5,2264.5 Z"/></g>
<g><path style="opacity:1" fill="#87d1cd" d="M 3395.5,2264.5 C 3412.15,2265.72 3428.82,2265.72 3445.5,2264.5C 3467.88,2262.85 3489.88,2259.02 3511.5,2253C 3528.08,2248.3 3542.58,2240.13 3555,2228.5C 3575.1,2241.59 3594.93,2255.09 3614.5,2269C 3562.58,2296.49 3507.91,2304.16 3450.5,2292C 3430.15,2286.49 3411.82,2277.33 3395.5,2264.5 Z"/></g>
<g><path style="opacity:1" fill="#eef1ee" d="M 2663.5,2274.5 C 2673.31,2344.37 2682.14,2414.37 2690,2484.5C 2693.16,2515.1 2695.33,2545.76 2696.5,2576.5C 2697.24,2604.9 2699.07,2633.23 2702,2661.5C 2723.33,2835.11 2748.66,3008.11 2778,3180.5C 2785.56,3184.52 2793.39,3187.85 2801.5,3190.5C 2799.01,3201.81 2796.51,3213.15 2794,3224.5C 2793.5,3243.16 2793.33,3261.83 2793.5,3280.5C 2706.5,3280.5 2619.5,3280.5 2532.5,3280.5C 2532.67,3261.5 2532.5,3242.5 2532,3223.5C 2529.65,3212.42 2527.15,3201.42 2524.5,3190.5C 2532.52,3187.87 2540.36,3184.54 2548,3180.5C 2569.08,3056.12 2588.41,2931.46 2606,2806.5C 2614.98,2744.7 2622.32,2682.7 2628,2620.5C 2629.08,2568.69 2632.42,2517.03 2638,2465.5C 2645.16,2401.51 2653.66,2337.85 2663.5,2274.5 Z"/></g>
<g><path style="opacity:1" fill="#b6cbf5" d="M 1526.5,2445.5 C 1544.67,2444.17 1563,2444.17 1581.5,2445.5C 1581.38,2446.11 1581.04,2446.44 1580.5,2446.5C 1562.67,2445.5 1544.67,2445.17 1526.5,2445.5 Z"/></g>
<g><path style="opacity:1" fill="#749af0" d="M 1526.5,2445.5 C 1544.67,2445.17 1562.67,2445.5 1580.5,2446.5C 1575.5,2459.69 1567.5,2470.86 1556.5,2480C 1531.32,2499.91 1502.65,2511.58 1470.5,2515C 1450.39,2517.5 1430.39,2518 1410.5,2516.5C 1425.28,2515.85 1438.95,2511.68 1451.5,2504C 1450.58,2503.72 1449.92,2503.22 1449.5,2502.5C 1452.32,2502.75 1454.99,2502.25 1457.5,2501C 1479.79,2486.38 1498.46,2468.04 1513.5,2446C 1517.82,2445.5 1522.15,2445.33 1526.5,2445.5 Z"/></g>
<g><path style="opacity:1" fill="#5786d7" d="M 1449.5,2502.5 C 1449.92,2503.22 1450.58,2503.72 1451.5,2504C 1438.95,2511.68 1425.28,2515.85 1410.5,2516.5C 1384.26,2515.96 1360.26,2508.46 1338.5,2494C 1335.33,2490.83 1332.17,2487.67 1329,2484.5C 1328.55,2481.94 1329.72,2480.44 1332.5,2480C 1350.59,2473.46 1368.59,2466.62 1386.5,2459.5C 1394.36,2470.7 1403.69,2480.54 1414.5,2489C 1424.89,2496.74 1436.56,2501.24 1449.5,2502.5 Z"/></g>
<g><path style="opacity:1" fill="#f99746" d="M 901.5,2976.5 C 916.993,2976.61 931.66,2980.11 945.5,2987C 947.124,2988.12 948.124,2989.62 948.5,2991.5C 942.197,3010.44 933.031,3027.78 921,3043.5C 915.647,3049.93 908.814,3052.59 900.5,3051.5C 887.149,3052.07 874.815,3048.9 863.5,3042C 860.502,3039.67 858.502,3036.67 857.5,3033C 869.571,3024.27 880.404,3014.1 890,3002.5C 895.748,2994.67 899.581,2986 901.5,2976.5 Z"/></g>
<g><path style="opacity:1" fill="#223861" d="M 2423.5,3189.5 C 2457.09,3199.73 2490.76,3200.07 2524.5,3190.5C 2527.15,3201.42 2529.65,3212.42 2532,3223.5C 2532.5,3242.5 2532.67,3261.5 2532.5,3280.5C 2488.5,3280.5 2444.5,3280.5 2400.5,3280.5C 2400.62,3265.02 2402.12,3249.69 2405,3234.5C 2411.09,3219.36 2417.26,3204.36 2423.5,3189.5 Z"/></g>
<g><path style="opacity:1" fill="#223861" d="M 2901.5,3189.5 C 2902.46,3189.95 2903.29,3190.62 2904,3191.5C 2909.81,3207.26 2915.81,3222.92 2922,3238.5C 2923.9,3252.44 2925.06,3266.44 2925.5,3280.5C 2881.5,3280.5 2837.5,3280.5 2793.5,3280.5C 2793.33,3261.83 2793.5,3243.16 2794,3224.5C 2796.51,3213.15 2799.01,3201.81 2801.5,3190.5C 2834.9,3200 2868.23,3199.67 2901.5,3189.5 Z"/></g>
<g><path style="opacity:1" fill="#feb83f" d="M 2400.5,3280.5 C 2444.5,3280.5 2488.5,3280.5 2532.5,3280.5C 2619.5,3280.5 2706.5,3280.5 2793.5,3280.5C 2837.5,3280.5 2881.5,3280.5 2925.5,3280.5C 2998.17,3280.33 3070.83,3280.5 3143.5,3281C 3175.13,3286.96 3193.63,3305.79 3199,3337.5C 3199.63,3372.95 3183.13,3395.95 3149.5,3406.5C 3149.17,3406.5 3148.83,3406.5 3148.5,3406.5C 2824.49,3407.83 2500.49,3407.83 2176.5,3406.5C 2176.17,3406.5 2175.83,3406.5 2175.5,3406.5C 2140.85,3395.66 2124.35,3371.99 2126,3335.5C 2132.06,3305.78 2149.89,3287.61 2179.5,3281C 2253.17,3280.5 2326.83,3280.33 2400.5,3280.5 Z"/></g>
<g><path style="opacity:1" fill="#e6a330" d="M 2176.5,3406.5 C 2500.49,3407.83 2824.49,3407.83 3148.5,3406.5C 3148.5,3604.83 3148.5,3803.17 3148.5,4001.5C 3147.35,4001.79 3146.68,4002.62 3146.5,4004C 3139.34,4039.66 3140.01,4074.82 3148.5,4109.5C 3148.5,4175.17 3148.5,4240.83 3148.5,4306.5C 2824.5,4306.5 2500.5,4306.5 2176.5,4306.5C 2176.5,4006.5 2176.5,3706.5 2176.5,3406.5 Z"/></g>
<g><path style="opacity:1" fill="#feb83e" d="M 2466.5,3680.5 C 2596.17,3680.33 2725.83,3680.5 2855.5,3681C 2909.95,3686.96 2948.45,3714.79 2971,3764.5C 2991.05,3823.46 2978.55,3874.29 2933.5,3917C 2914.5,3932.57 2892.83,3942.57 2868.5,3947C 2733.19,3948.65 2597.85,3948.98 2462.5,3948C 2412.22,3940.44 2376.38,3913.61 2355,3867.5C 2333.73,3808.84 2345.23,3757.67 2389.5,3714C 2411.72,3694.98 2437.38,3683.81 2466.5,3680.5 Z"/></g>
<g><path style="opacity:1" fill="#e6a542" d="M 3148.5,4001.5 C 3148.18,4009.22 3147.35,4016.88 3146,4024.5C 3145.83,4032.33 3145.67,4040.17 3145.5,4048C 3146.14,4068.52 3147.14,4089.02 3148.5,4109.5C 3140.01,4074.82 3139.34,4039.66 3146.5,4004C 3146.68,4002.62 3147.35,4001.79 3148.5,4001.5 Z"/></g>
<g><path style="opacity:1" fill="#dfb574" d="M 3148.5,3406.5 C 3148.83,3406.5 3149.17,3406.5 3149.5,3406.5C 3149.5,3706.83 3149.5,4007.17 3149.5,4307.5C 3149.17,4307.5 3148.83,4307.5 3148.5,4307.5C 3148.5,4307.17 3148.5,4306.83 3148.5,4306.5C 3148.5,4240.83 3148.5,4175.17 3148.5,4109.5C 3147.14,4089.02 3146.14,4068.52 3145.5,4048C 3145.67,4040.17 3145.83,4032.33 3146,4024.5C 3147.35,4016.88 3148.18,4009.22 3148.5,4001.5C 3148.5,3803.17 3148.5,3604.83 3148.5,3406.5 Z"/></g>
<g><path style="opacity:1" fill="#c59546" d="M 2175.5,3406.5 C 2175.83,3406.5 2176.17,3406.5 2176.5,3406.5C 2176.5,3706.5 2176.5,4006.5 2176.5,4306.5C 2500.5,4306.5 2824.5,4306.5 3148.5,4306.5C 3148.5,4306.83 3148.5,4307.17 3148.5,4307.5C 2824.17,4307.5 2499.83,4307.5 2175.5,4307.5C 2175.5,4007.17 2175.5,3706.83 2175.5,3406.5 Z"/></g>
<g><path style="opacity:1" fill="#2e3552" d="M 828.5,4307.5 C 1277.5,4307.5 1726.5,4307.5 2175.5,4307.5C 2499.83,4307.5 2824.17,4307.5 3148.5,4307.5C 3148.83,4307.5 3149.17,4307.5 3149.5,4307.5C 3328.17,4307.5 3506.83,4307.5 3685.5,4307.5C 3687.96,4308.89 3690.63,4310.06 3693.5,4311C 3716.4,4311.03 3739.07,4313.36 3761.5,4318C 3784.43,4319.71 3806.43,4316.21 3827.5,4307.5C 4253.17,4307.5 4678.83,4307.5 5104.5,4307.5C 5112.38,4310.3 5114.55,4315.63 5111,4323.5C 5109.79,4325.05 5108.29,4326.22 5106.5,4327C 4393,4327.17 3679.5,4327.33 2966,4327.5C 2252.5,4327.33 1539,4327.17 825.5,4327C 819.975,4324.08 818.142,4319.58 820,4313.5C 821.605,4309.72 824.438,4307.72 828.5,4307.5 Z"/></g>
<g><path style="opacity:1" fill="#3f455d" d="M 3685.5,4307.5 C 3689.17,4307.5 3692.83,4307.5 3696.5,4307.5C 3714.72,4309.33 3733.05,4311.5 3751.5,4314C 3772.07,4315.69 3792.4,4314.36 3812.5,4310C 3814.49,4309.63 3816.16,4308.79 3817.5,4307.5C 3820.83,4307.5 3824.17,4307.5 3827.5,4307.5C 3806.43,4316.21 3784.43,4319.71 3761.5,4318C 3739.07,4313.36 3716.4,4311.03 3693.5,4311C 3690.63,4310.06 3687.96,4308.89 3685.5,4307.5 Z"/></g>
<g><path style="opacity:1" fill="#585d6f" d="M 3696.5,4307.5 C 3708.83,4307.5 3721.17,4307.5 3733.5,4307.5C 3745.63,4310.56 3758.13,4311.89 3771,4311.5C 3776.5,4311.33 3782,4311.17 3787.5,4311C 3792.14,4309.22 3796.8,4308.06 3801.5,4307.5C 3806.83,4307.5 3812.17,4307.5 3817.5,4307.5C 3816.16,4308.79 3814.49,4309.63 3812.5,4310C 3792.4,4314.36 3772.07,4315.69 3751.5,4314C 3733.05,4311.5 3714.72,4309.33 3696.5,4307.5 Z"/></g>
<g><path style="opacity:1" fill="#747a88" d="M 3733.5,4307.5 C 3756.17,4307.5 3778.83,4307.5 3801.5,4307.5C 3796.8,4308.06 3792.14,4309.22 3787.5,4311C 3782,4311.17 3776.5,4311.33 3771,4311.5C 3758.13,4311.89 3745.63,4310.56 3733.5,4307.5 Z"/></g>
</svg>
